<svg xmlns="http://www.w3.org/2000/svg" xmlns:xlink="http://www.w3.org/1999/xlink" version="1.1" id="Layer_1" x="0px" y="0px" width="100px" height="100px" viewBox="0 0 100 100" enable-background="new 0 0 100 100" xml:space="preserve">
<g>
	<path fill="none" stroke="#000000" stroke-width="3" stroke-linecap="round" stroke-miterlimit="10" d="M85.68,62.344"/>
	<path fill="none" stroke="#000000" stroke-width="3" stroke-linecap="round" stroke-miterlimit="10" d="M64.864,69.538   c4.344-1.55,15.194,5.94,15.194,5.94c0.287,0.319,1.178-0.016,1.993-0.748l0,0c0.814-0.731,1.243-1.583,0.956-1.901l-6.924-7.703"/>
	<path fill="none" stroke="#000000" stroke-width="3" stroke-linecap="round" stroke-miterlimit="10" d="M71.206,51.932   c4.192-0.305,7.747,1.605,7.941,4.266c0.125,1.731-0.68,3.087-2.415,3.908"/>
	<path fill="none" stroke="#000000" stroke-width="3" stroke-linecap="round" stroke-miterlimit="10" d="M46.951,44.335   c0.888-3.884,7.562-5.669,14.907-3.988c7.344,1.681,12.577,6.192,11.689,10.077"/>
	<path fill="none" stroke="#000000" stroke-width="3" stroke-linecap="round" stroke-miterlimit="10" d="M31.236,67.139   c-0.354,2.945,2.651,5.727,6.71,6.214c4.061,0.485,7.637-1.508,7.99-4.452"/>
	<path fill="none" stroke="#000000" stroke-width="3" stroke-linecap="round" stroke-miterlimit="10" d="M30.155,52.363   c-1.507-3.122,0.902-7.406,5.381-9.568c4.479-2.163,9.331-1.384,10.838,1.739"/>
	<path fill="none" stroke="#000000" stroke-width="3" stroke-linecap="round" stroke-miterlimit="10" d="M30.17,67.923   c-3.438-0.032-6.193-3.445-6.153-7.621c0.039-4.176,2.859-7.536,6.297-7.503"/>
	<path fill="none" stroke="#000000" stroke-width="3" stroke-linecap="round" stroke-miterlimit="10" d="M46.241,69.517   c0.311,4.276,3.204,5.289,7.983,4.94c2.391-0.173,5.375-1.173,6.838-2.688c0,0,5.129-4.489,10.951-4.775"/>
	<path fill="none" stroke="#000000" stroke-width="3" stroke-linecap="round" stroke-miterlimit="10" d="M55.967,63.905   c-0.489-2.435-3.935-3.792-7.703-3.034"/>
	<path fill="none" stroke="#000000" stroke-width="3" stroke-linecap="round" stroke-miterlimit="10" d="M53.862,61.422   c-0.501-2.494,1.484-4.993,4.44-5.588"/>
	<path fill="none" stroke="#000000" stroke-width="3" stroke-linecap="round" stroke-miterlimit="10" d="M31.192,65.659   c-0.503-2.493,1.484-4.992,4.44-5.587"/>
	<path fill="none" stroke="#000000" stroke-width="3" stroke-linecap="round" stroke-miterlimit="10" d="M76.267,60.473   c1.926,0.441,3.183,2.133,2.806,3.779c-0.246,1.071-0.843,1.774-1.759,2.014"/>
	<path fill="none" stroke="#000000" stroke-width="3" stroke-linecap="round" stroke-miterlimit="10" d="M40.377,48.07   c0.549-2.484,3.377-3.966,6.32-3.314"/>
	<path fill="none" stroke="#000000" stroke-width="3" stroke-linecap="round" stroke-miterlimit="10" d="M45.829,69.087   c0.384-2.454-2.378-4.921-6.175-5.517"/>
	<path fill="none" stroke="#000000" stroke-width="3" stroke-linecap="round" stroke-miterlimit="10" d="M64.149,48.965   c-0.489-2.435-3.936-3.792-7.703-3.034"/>
</g>
<line fill="none" stroke="#000000" stroke-width="3" stroke-linecap="round" stroke-miterlimit="10" x1="63.639" y1="35.481" x2="68.229" y2="26.942"/>
<line fill="none" stroke="#000000" stroke-width="3" stroke-linecap="round" stroke-miterlimit="10" x1="40.292" y1="36.754" x2="34.748" y2="28.798"/>
<line fill="none" stroke="#000000" stroke-width="3" stroke-linecap="round" stroke-miterlimit="10" x1="50.5" y1="34" x2="50.5" y2="23"/>
</svg>