<svg xmlns="http://www.w3.org/2000/svg" xmlns:xlink="http://www.w3.org/1999/xlink" version="1.1" id="Layer_1" x="0px" y="0px" width="100px" height="100px" viewBox="0 0 100 100" enable-background="new 0 0 100 100" xml:space="preserve">
<g>
	<circle fill="none" stroke="#000000" stroke-width="0.9" stroke-miterlimit="10" cx="66.958" cy="29.776" r="3.981"/>
	
		<rect x="64.179" y="24.413" transform="matrix(0.9374 -0.3484 0.3484 0.9374 -4.629 24.2372)" fill="none" stroke="#000000" stroke-width="0.9" stroke-miterlimit="10" width="1.804" height="1.154"/>
	
		<rect x="67.687" y="24.351" transform="matrix(0.9651 0.2619 -0.2619 0.9651 8.9209 -17.0906)" fill="none" stroke="#000000" stroke-width="0.9" stroke-miterlimit="10" width="1.803" height="1.155"/>
	
		<rect x="70.394" y="26.338" transform="matrix(0.6165 0.7874 -0.7874 0.6165 48.5335 -45.8132)" fill="none" stroke="#000000" stroke-width="0.9" stroke-miterlimit="10" width="1.803" height="1.154"/>
	
		<rect x="71.232" y="29.862" transform="matrix(-0.1029 0.9947 -0.9947 -0.1029 109.8343 -38.1789)" fill="none" stroke="#000000" stroke-width="0.9" stroke-miterlimit="10" width="1.803" height="1.154"/>
	
		<rect x="69.575" y="33.087" transform="matrix(-0.7684 0.64 -0.64 -0.7684 146.1729 14.4234)" fill="none" stroke="#000000" stroke-width="0.9" stroke-miterlimit="10" width="1.804" height="1.154"/>
	
		<rect x="66.162" y="34.489" transform="matrix(-1 0.003 -0.003 -1 134.2321 69.9315)" fill="none" stroke="#000000" stroke-width="0.9" stroke-miterlimit="10" width="1.804" height="1.154"/>
	
		<rect x="62.852" y="33.413" transform="matrix(-0.8106 -0.5856 0.5856 -0.8106 95.5312 98.8744)" fill="none" stroke="#000000" stroke-width="0.9" stroke-miterlimit="10" width="1.803" height="1.154"/>
	
		<rect x="60.927" y="30.584" transform="matrix(-0.2516 -0.9678 0.9678 -0.2516 47.2286 98.841)" fill="none" stroke="#000000" stroke-width="0.9" stroke-miterlimit="10" width="1.803" height="1.154"/>
	
		<rect x="61.284" y="26.846" transform="matrix(0.5268 -0.85 0.85 0.5268 6.1155 65.8317)" fill="none" stroke="#000000" stroke-width="0.9" stroke-miterlimit="10" width="1.803" height="1.154"/>
	<circle fill="none" stroke="#000000" stroke-width="0.9" stroke-miterlimit="10" cx="66.958" cy="29.775" r="2.86"/>
</g>
<g>
	<circle fill="none" stroke="#000000" stroke-width="0.9" stroke-miterlimit="10" cx="48.217" cy="34.324" r="2.651"/>
	
		<rect x="46.367" y="30.753" transform="matrix(0.9374 -0.3481 0.3481 0.9374 -7.9018 18.2987)" fill="none" stroke="#000000" stroke-width="0.9" stroke-miterlimit="10" width="1.201" height="0.768"/>
	
		<rect x="48.703" y="30.711" transform="matrix(0.9652 0.2616 -0.2616 0.9652 9.8531 -11.8162)" fill="none" stroke="#000000" stroke-width="0.9" stroke-miterlimit="10" width="1.2" height="0.769"/>
	
		<rect x="50.505" y="32.034" transform="matrix(0.6168 0.7871 -0.7871 0.6168 45.0985 -27.8037)" fill="none" stroke="#000000" stroke-width="0.9" stroke-miterlimit="10" width="1.202" height="0.768"/>
	
		<rect x="51.063" y="34.38" transform="matrix(-0.1037 0.9946 -0.9946 -0.1037 91.5996 -13.0138)" fill="none" stroke="#000000" stroke-width="0.9" stroke-miterlimit="10" width="1.2" height="0.769"/>
	
		<rect x="49.96" y="36.528" transform="matrix(-0.7683 0.6401 -0.6401 -0.7683 113.0323 32.9047)" fill="none" stroke="#000000" stroke-width="0.9" stroke-miterlimit="10" width="1.201" height="0.769"/>
	
		<rect x="47.688" y="37.461" fill="none" stroke="#000000" stroke-width="0.9" stroke-miterlimit="10" width="1.201" height="0.769"/>
	
		<rect x="45.483" y="36.745" transform="matrix(-0.8106 -0.5857 0.5857 -0.8106 61.692 94.214)" fill="none" stroke="#000000" stroke-width="0.9" stroke-miterlimit="10" width="1.201" height="0.768"/>
	
		<rect x="44.201" y="34.861" transform="matrix(-0.2517 -0.9678 0.9678 -0.2517 21.968 87.4765)" fill="none" stroke="#000000" stroke-width="0.9" stroke-miterlimit="10" width="1.201" height="0.768"/>
	
		<rect x="44.439" y="32.373" transform="matrix(0.5265 -0.8502 0.8502 0.5265 -6.5234 53.8005)" fill="none" stroke="#000000" stroke-width="0.9" stroke-miterlimit="10" width="1.201" height="0.768"/>
	<circle fill="none" stroke="#000000" stroke-width="0.9" stroke-miterlimit="10" cx="48.217" cy="34.323" r="1.905"/>
</g>
<g>
	<circle fill="none" stroke="#000000" stroke-width="0.9" stroke-miterlimit="10" cx="55.552" cy="24.268" r="2.651"/>
	
		<rect x="53.703" y="20.696" transform="matrix(0.9373 -0.3486 0.3486 0.9373 -3.9425 20.2539)" fill="none" stroke="#000000" stroke-width="0.9" stroke-miterlimit="10" width="1.2" height="0.769"/>
	
		<rect x="56.038" y="20.656" transform="matrix(0.9651 0.2619 -0.2619 0.9651 7.4878 -14.0999)" fill="none" stroke="#000000" stroke-width="0.9" stroke-miterlimit="10" width="1.201" height="0.768"/>
	
		<rect x="57.842" y="21.978" transform="matrix(0.6167 0.7872 -0.7872 0.6167 40.0024 -37.4331)" fill="none" stroke="#000000" stroke-width="0.9" stroke-miterlimit="10" width="1.2" height="0.769"/>
	
		<rect x="58.399" y="24.325" transform="matrix(-0.1033 0.9947 -0.9947 -0.1033 89.6702 -31.4218)" fill="none" stroke="#000000" stroke-width="0.9" stroke-miterlimit="10" width="1.201" height="0.769"/>
	
		<rect x="57.296" y="26.472" transform="matrix(-0.7681 0.6403 -0.6403 -0.7681 119.5623 10.4118)" fill="none" stroke="#000000" stroke-width="0.9" stroke-miterlimit="10" width="1.2" height="0.769"/>
	
		<rect x="55.023" y="27.406" fill="none" stroke="#000000" stroke-width="0.9" stroke-miterlimit="10" width="1.201" height="0.769"/>
	
		<rect x="52.819" y="26.689" transform="matrix(-0.8109 -0.5852 0.5852 -0.8109 80.8934 80.2873)" fill="none" stroke="#000000" stroke-width="0.9" stroke-miterlimit="10" width="1.201" height="0.768"/>
	
		<rect x="51.537" y="24.806" transform="matrix(-0.2518 -0.9678 0.9678 -0.2518 40.8881 81.9901)" fill="none" stroke="#000000" stroke-width="0.9" stroke-miterlimit="10" width="1.2" height="0.768"/>
	
		<rect x="51.775" y="22.317" transform="matrix(0.527 -0.8499 0.8499 0.527 5.4808 55.2495)" fill="none" stroke="#000000" stroke-width="0.9" stroke-miterlimit="10" width="1.201" height="0.768"/>
	<circle fill="none" stroke="#000000" stroke-width="0.9" stroke-miterlimit="10" cx="55.552" cy="24.268" r="1.905"/>
</g>
<path fill="none" stroke="#000000" stroke-width="2.7" stroke-linecap="round" stroke-miterlimit="10" d="M66.922,73.069  c0,0-17.014,3.027-19.351-9.394"/>
<path fill="none" stroke="#000000" stroke-width="2.7" stroke-linecap="round" stroke-miterlimit="10" d="M62.24,38.124  C76.25,48.283,74.804,61.705,74.804,61.705h-7.882v20.619H34.777V43.071l-1.717-0.999c-7.207-4.817-9.21-14.466-4.475-21.551  c4.735-7.085,14.417-8.925,21.624-4.108l-7.7,9.5l-6.866,8.977"/>
<path fill="none" stroke="#000000" stroke-width="2.7" stroke-linecap="round" stroke-miterlimit="10" d="M46.114,52.43  c0-1.854,1.504-3.357,3.358-3.357c1.853,0,3.358,1.502,3.358,3.357"/>
<path fill="none" stroke="#000000" stroke-width="2.7" stroke-linecap="round" stroke-miterlimit="10" d="M59.908,51.769  c0-1.854,1.503-3.357,3.358-3.357c1.854,0,3.357,1.504,3.357,3.357"/>
</svg>