<svg xmlns="http://www.w3.org/2000/svg" xmlns:xlink="http://www.w3.org/1999/xlink" version="1.1" x="0px" y="0px" viewBox="0 0 500 500" enable-background="new 0 0 500 500" xml:space="preserve" height="100px" width="100px">
<g id="Calque_1_-_copie_4" display="none">
	<g display="inline">
		<path fill="#000000" d="M159.7,284c16.9,21.1,26,54.5,30.8,86.4l-3.7-0.1l-0.3,9.6l5.4,0.2c0.4,3.3,0.7,6.4,1,9.6l-6.2-0.2    l-0.3,9.6l7.4,0.3c0.3,3.3,0.5,6.5,0.7,9.6l-7.8-0.3l-0.3,9.6l8.6,0.3c0.1,3.3,0.3,6.6,0.3,9.6l-8.6-0.3l-0.3,9.6l9.1,0.3v18.8    h17.9v19.1h19.2c2.5,5.5,9,9.6,16.7,9.6c7.8,0,14.3-4,16.7-9.6h19.2v-19.1h17.9v-14.8l8.8,0.3l0.3-9.6l-9-0.3c0-3,0.1-6.1,0.2-9.6    l8.5,0.3l0.3-9.6l-8.4-0.3c0.2-3.1,0.4-6.3,0.7-9.5l7.4,0.3l0.3-9.6l-6.9-0.3c0.3-3.1,0.7-6.3,1-9.5l5.6,0.2l0.3-9.6l-4.7-0.2    c4.7-33.1,13.8-68.7,31.5-90.8c30.6-38.2,53.8-69.1,53.8-114.7c0-50.2-22.7-94.8-57.7-122.7c-3.7-2.9-7.5-5.7-11.5-8.3    c-2-1.3-4-2.5-6-3.7c-4.1-2.4-8.3-4.5-12.6-6.4c-2.1-1-4.3-1.9-6.5-2.7c-4.4-1.7-8.9-3.2-13.5-4.5c-4.6-1.3-9.3-2.3-14-3.1    c-5.3-0.9-10.8-1.4-16.3-1.7c-1.8-0.1-3.7-0.1-5.6-0.1c-3.7,0-7.4,0.2-11,0.4c-3.6,0.3-7.3,0.7-10.8,1.3c-4.8,0.8-9.4,1.8-14,3.1    c-4.6,1.3-9.1,2.8-13.5,4.5c-2.2,0.9-4.4,1.8-6.5,2.7c-4.3,1.9-8.5,4.1-12.6,6.4c-2,1.2-4,2.4-6,3.7c-3.9,2.6-7.8,5.3-11.5,8.3    c-35,27.9-57.7,72.5-57.7,122.7C105.9,214.9,129.1,245.8,159.7,284z M232.3,279.9c-3-51.8-19.9-83-31-98c2-0.1,3.9-0.4,5.7-1    c2,0.6,4.2,1,6.4,1c2.7,0,5.3-0.6,7.7-1.4c2.4,0.9,5,1.4,7.7,1.4c2.5,0,4.8-0.5,7.1-1.2c2.2,0.7,4.6,1.2,7.1,1.2s4.8-0.5,7.1-1.2    c2.2,0.7,4.6,1.2,7.1,1.2c2.5,0,4.8-0.5,7.1-1.2c2.2,0.7,4.6,1.2,7.1,1.2c2.5,0,4.8-0.5,7.1-1.2c2.2,0.7,4.6,1.2,7.1,1.2    c2.5,0,4.8-0.5,7.1-1.2c1.6,0.5,3.4,0.9,5.2,1c-11.1,14.9-28.1,46.2-31.1,98.1c-5.6,0.8-11.3,1.4-17.2,1.4    C243.6,281.2,237.9,280.7,232.3,279.9z M292.6,175c-1.2-0.5-2.2-1.4-3.2-2.2c2.8-3.8,4.5-8.4,4.5-13.4c0-5.1-1.7-9.7-4.5-13.4    c1-0.8,2-1.6,3.2-2.2c5.9,2.7,10.1,8.6,10.1,15.6C302.7,166.4,298.5,172.3,292.6,175z M308.1,159.4c0-6.9-3.1-13-8-17.1    c9.3,0.2,16.8,7.8,16.8,17.1c0,5.8-3.1,10.7-7.5,13.8l-7.1,2.9c-0.8,0.1-1.4,0.4-2.2,0.5C304.9,172.4,308.1,166.3,308.1,159.4z     M285.5,168.6c-1.8-2.7-3-5.7-3-9.2s1.3-6.5,3-9.2c1.8,2.7,3,5.7,3,9.2S287.3,165.9,285.5,168.6z M281.6,172.8    c-1,0.8-2,1.6-3.2,2.2c-1.2-0.5-2.2-1.4-3.2-2.2c1.4-1.8,2.4-3.9,3.2-6.1C279.2,169,280.3,171,281.6,172.8z M278.4,152.1    c-0.8-2.2-1.8-4.2-3.2-6.1c1-0.8,2-1.6,3.2-2.2c1.2,0.5,2.2,1.4,3.2,2.2C280.3,147.8,279.2,149.9,278.4,152.1z M271.4,168.6    c-1.8-2.7-3-5.7-3-9.2s1.3-6.5,3-9.2c1.8,2.7,3,5.7,3,9.2S273.1,165.9,271.4,168.6z M267.5,172.8c-1,0.8-2,1.6-3.2,2.2    c-1.2-0.5-2.2-1.4-3.2-2.2c1.4-1.8,2.4-3.9,3.2-6.1C265,169,266.1,171,267.5,172.8z M264.3,152.1c-0.8-2.2-1.8-4.2-3.2-6.1    c1-0.8,2-1.6,3.2-2.2c1.2,0.5,2.2,1.4,3.2,2.2C266.1,147.8,265,149.9,264.3,152.1z M257.2,168.6c-1.8-2.7-3-5.7-3-9.2    s1.3-6.5,3-9.2c1.8,2.7,3,5.7,3,9.2S259,165.9,257.2,168.6z M253.3,172.8c-1,0.8-2,1.6-3.2,2.2c-1.2-0.5-2.2-1.4-3.2-2.2    c1.4-1.8,2.4-3.9,3.2-6.1C250.9,169,251.9,171,253.3,172.8z M250.1,152.1c-0.8-2.2-1.8-4.2-3.2-6.1c1-0.8,2-1.6,3.2-2.2    c1.2,0.5,2.2,1.4,3.2,2.2C251.9,147.8,250.9,149.9,250.1,152.1z M243,168.6c-1.8-2.7-3-5.7-3-9.2s1.3-6.5,3-9.2    c1.8,2.7,3,5.7,3,9.2S244.8,165.9,243,168.6z M239.2,172.8c-1,0.8-2,1.6-3.2,2.2c-1.5-0.7-2.8-1.7-4-2.7c1.6-2.3,2.7-4.8,3.4-7.6    C236,167.7,237.4,170.4,239.2,172.8z M235.3,154.2c-0.7-2.8-1.8-5.3-3.4-7.6c1.2-1.1,2.5-2,4-2.7c1.2,0.5,2.2,1.4,3.2,2.2    C237.4,148.4,236,151.2,235.3,154.2z M230.6,159.4c0,3-1,5.7-2.4,8.2c-1.4-2.5-2.4-5.2-2.4-8.2c0-3,1-5.7,2.4-8.2    C229.6,153.7,230.6,156.4,230.6,159.4z M228.2,142.5c-0.1,0-0.1-0.1-0.2-0.1c0.1,0,0.3-0.1,0.4-0.1    C228.4,142.4,228.3,142.4,228.2,142.5z M228.2,176.3c0.1,0.1,0.2,0.1,0.3,0.2c-0.1,0-0.3-0.1-0.4-0.1    C228.1,176.4,228.2,176.4,228.2,176.3z M224.5,172.3c-1,0.9-2.2,1.7-3.4,2.3c-0.9-0.5-1.7-1.1-2.5-1.7c1.4-1.8,2.4-3.9,3.2-6.1    C222.5,168.7,223.4,170.6,224.5,172.3z M221.8,152.1c-0.8-2.2-1.8-4.2-3.2-6.1c0.8-0.6,1.6-1.2,2.5-1.7c1.2,0.6,2.3,1.4,3.4,2.3    C223.4,148.2,222.5,150.1,221.8,152.1z M214.7,168.6c-1.8-2.7-3-5.7-3-9.2s1.3-6.5,3-9.2c1.8,2.7,3,5.7,3,9.2    S216.5,165.9,214.7,168.6z M206.3,159.4c0,5,1.7,9.7,4.5,13.4c-1.2,0.9-2.4,1.9-3.8,2.5c-6.3-2.5-10.8-8.7-10.8-15.9    c0-7.2,4.5-13.3,10.8-15.9c1.4,0.6,2.6,1.5,3.8,2.5C208,149.8,206.3,154.4,206.3,159.4z M190.9,159.4c0,6.7,3,12.6,7.6,16.8    c-0.7-0.1-1.4-0.2-2.1-0.4l-6.3-3.1c-3.9-3.1-6.6-7.8-6.6-13.2c0-8.7,6.6-15.7,15.1-16.8C193.8,146.8,190.9,152.7,190.9,159.4z     M129.1,160.9c0-66.5,53.9-120.4,120.4-120.4s120.4,53.9,120.4,120.4c0,58.1-41.2,106.6-96,117.9c3.8-57,25.2-88,34.2-98.4    c8.3-3.3,14.2-11.4,14.2-20.9c0-12.5-10.1-22.6-22.6-22.6c-2.5,0-4.8,0.5-7.1,1.2c-2.2-0.7-4.6-1.2-7.1-1.2    c-2.5,0-4.8,0.5-7.1,1.2c-2.2-0.7-4.6-1.2-7.1-1.2c-2.5,0-4.8,0.5-7.1,1.2c-2.2-0.7-4.6-1.2-7.1-1.2c-2.5,0-4.8,0.5-7.1,1.2    c-2.2-0.7-4.6-1.2-7.1-1.2s-4.8,0.5-7.1,1.2c-2.2-0.7-4.6-1.2-7.1-1.2c-2.7,0-5.3,0.6-7.7,1.4c-2.4-0.9-5-1.4-7.7-1.4    c-2.2,0-4.4,0.4-6.4,1c-2-0.6-4.2-1-6.4-1c-12.5,0-22.6,10.1-22.6,22.6c0,8.5,4.8,15.9,11.8,19.7c8.2,9,31.5,40,35.4,99.7    C170.4,267.6,129.1,219,129.1,160.9z"/>
	</g>
</g>
<g id="Calque_1_-_copie_3" display="none">
	<g display="inline">
		<path fill="#000000" d="M159.7,284c16.9,21.1,26,54.5,30.8,86.4l-3.7-0.1l-0.3,9.6l5.4,0.2c0.4,3.3,0.7,6.4,1,9.6l-6.2-0.2    l-0.3,9.6l7.4,0.3c0.3,3.3,0.5,6.5,0.7,9.6l-7.8-0.3l-0.3,9.6l8.6,0.3c0.1,3.3,0.3,6.6,0.3,9.6l-8.6-0.3l-0.3,9.6l9.1,0.3v18.8    h17.9v19.1h19.2c2.5,5.5,9,9.6,16.7,9.6c7.8,0,14.3-4,16.7-9.6h19.2v-19.1h17.9v-14.8l8.8,0.3l0.3-9.6l-9-0.3c0-3,0.1-6.1,0.2-9.6    l8.5,0.3l0.3-9.6l-8.4-0.3c0.2-3.1,0.4-6.3,0.7-9.5l7.4,0.3l0.3-9.6l-6.9-0.3c0.3-3.1,0.7-6.3,1-9.5l5.6,0.2l0.3-9.6l-4.7-0.2    c4.7-33.1,13.8-68.7,31.5-90.8c30.6-38.2,53.8-69.1,53.8-114.7c0-50.2-22.7-94.8-57.7-122.7c-3.7-2.9-7.5-5.7-11.5-8.3    c-2-1.3-4-2.5-6-3.7c-4.1-2.4-8.3-4.5-12.6-6.4c-2.1-1-4.3-1.9-6.5-2.7c-4.4-1.7-8.9-3.2-13.5-4.5c-4.6-1.3-9.3-2.3-14-3.1    c-5.3-0.9-10.8-1.4-16.3-1.7c-1.8-0.1-3.7-0.1-5.6-0.1c-3.7,0-7.4,0.2-11,0.4c-3.6,0.3-7.3,0.7-10.8,1.3c-4.8,0.8-9.4,1.8-14,3.1    c-4.6,1.3-9.1,2.8-13.5,4.5c-2.2,0.9-4.4,1.8-6.5,2.7c-4.3,1.9-8.5,4.1-12.6,6.4c-2,1.2-4,2.4-6,3.7c-3.9,2.6-7.8,5.3-11.5,8.3    c-35,27.9-57.7,72.5-57.7,122.7C105.9,214.9,129.1,245.8,159.7,284z M232.3,279.9c-3-51.8-19.9-83-31-98c2-0.1,3.9-0.4,5.7-1    c2,0.6,4.2,1,6.4,1c2.7,0,5.3-0.6,7.7-1.4c2.4,0.9,5,1.4,7.7,1.4c2.5,0,4.8-0.5,7.1-1.2c2.2,0.7,4.6,1.2,7.1,1.2s4.8-0.5,7.1-1.2    c2.2,0.7,4.6,1.2,7.1,1.2c2.5,0,4.8-0.5,7.1-1.2c2.2,0.7,4.6,1.2,7.1,1.2c2.5,0,4.8-0.5,7.1-1.2c2.2,0.7,4.6,1.2,7.1,1.2    c2.5,0,4.8-0.5,7.1-1.2c1.6,0.5,3.4,0.9,5.2,1c-11.1,14.9-28.1,46.2-31.1,98.1c-5.6,0.8-11.3,1.4-17.2,1.4    C243.6,281.2,237.9,280.7,232.3,279.9z M292.6,175c-1.2-0.5-2.2-1.4-3.2-2.2c2.8-3.8,4.5-8.4,4.5-13.4c0-5.1-1.7-9.7-4.5-13.4    c1-0.8,2-1.6,3.2-2.2c5.9,2.7,10.1,8.6,10.1,15.6C302.7,166.4,298.5,172.3,292.6,175z M308.1,159.4c0-6.9-3.1-13-8-17.1    c9.3,0.2,16.8,7.8,16.8,17.1c0,5.8-3.1,10.7-7.5,13.8l-7.1,2.9c-0.8,0.1-1.4,0.4-2.2,0.5C304.9,172.4,308.1,166.3,308.1,159.4z     M285.5,168.6c-1.8-2.7-3-5.7-3-9.2s1.3-6.5,3-9.2c1.8,2.7,3,5.7,3,9.2S287.3,165.9,285.5,168.6z M281.6,172.8    c-1,0.8-2,1.6-3.2,2.2c-1.2-0.5-2.2-1.4-3.2-2.2c1.4-1.8,2.4-3.9,3.2-6.1C279.2,169,280.3,171,281.6,172.8z M278.4,152.1    c-0.8-2.2-1.8-4.2-3.2-6.1c1-0.8,2-1.6,3.2-2.2c1.2,0.5,2.2,1.4,3.2,2.2C280.3,147.8,279.2,149.9,278.4,152.1z M271.4,168.6    c-1.8-2.7-3-5.7-3-9.2s1.3-6.5,3-9.2c1.8,2.7,3,5.7,3,9.2S273.1,165.9,271.4,168.6z M267.5,172.8c-1,0.8-2,1.6-3.2,2.2    c-1.2-0.5-2.2-1.4-3.2-2.2c1.4-1.8,2.4-3.9,3.2-6.1C265,169,266.1,171,267.5,172.8z M264.3,152.1c-0.8-2.2-1.8-4.2-3.2-6.1    c1-0.8,2-1.6,3.2-2.2c1.2,0.5,2.2,1.4,3.2,2.2C266.1,147.8,265,149.9,264.3,152.1z M257.2,168.6c-1.8-2.7-3-5.7-3-9.2    s1.3-6.5,3-9.2c1.8,2.7,3,5.7,3,9.2S259,165.9,257.2,168.6z M253.3,172.8c-1,0.8-2,1.6-3.2,2.2c-1.2-0.5-2.2-1.4-3.2-2.2    c1.4-1.8,2.4-3.9,3.2-6.1C250.9,169,251.9,171,253.3,172.8z M250.1,152.1c-0.8-2.2-1.8-4.2-3.2-6.1c1-0.8,2-1.6,3.2-2.2    c1.2,0.5,2.2,1.4,3.2,2.2C251.9,147.8,250.9,149.9,250.1,152.1z M243,168.6c-1.8-2.7-3-5.7-3-9.2s1.3-6.5,3-9.2    c1.8,2.7,3,5.7,3,9.2S244.8,165.9,243,168.6z M239.2,172.8c-1,0.8-2,1.6-3.2,2.2c-1.5-0.7-2.8-1.7-4-2.7c1.6-2.3,2.7-4.8,3.4-7.6    C236,167.7,237.4,170.4,239.2,172.8z M235.3,154.2c-0.7-2.8-1.8-5.3-3.4-7.6c1.2-1.1,2.5-2,4-2.7c1.2,0.5,2.2,1.4,3.2,2.2    C237.4,148.4,236,151.2,235.3,154.2z M230.6,159.4c0,3-1,5.7-2.4,8.2c-1.4-2.5-2.4-5.2-2.4-8.2c0-3,1-5.7,2.4-8.2    C229.6,153.7,230.6,156.4,230.6,159.4z M228.2,142.5c-0.1,0-0.1-0.1-0.2-0.1c0.1,0,0.3-0.1,0.4-0.1    C228.4,142.4,228.3,142.4,228.2,142.5z M228.2,176.3c0.1,0.1,0.2,0.1,0.3,0.2c-0.1,0-0.3-0.1-0.4-0.1    C228.1,176.4,228.2,176.4,228.2,176.3z M224.5,172.3c-1,0.9-2.2,1.7-3.4,2.3c-0.9-0.5-1.7-1.1-2.5-1.7c1.4-1.8,2.4-3.9,3.2-6.1    C222.5,168.7,223.4,170.6,224.5,172.3z M221.8,152.1c-0.8-2.2-1.8-4.2-3.2-6.1c0.8-0.6,1.6-1.2,2.5-1.7c1.2,0.6,2.3,1.4,3.4,2.3    C223.4,148.2,222.5,150.1,221.8,152.1z M214.7,168.6c-1.8-2.7-3-5.7-3-9.2s1.3-6.5,3-9.2c1.8,2.7,3,5.7,3,9.2    S216.5,165.9,214.7,168.6z M206.3,159.4c0,5,1.7,9.7,4.5,13.4c-1.2,0.9-2.4,1.9-3.8,2.5c-6.3-2.5-10.8-8.7-10.8-15.9    c0-7.2,4.5-13.3,10.8-15.9c1.4,0.6,2.6,1.5,3.8,2.5C208,149.8,206.3,154.4,206.3,159.4z M190.9,159.4c0,6.7,3,12.6,7.6,16.8    c-0.7-0.1-1.4-0.2-2.1-0.4l-6.3-3.1c-3.9-3.1-6.6-7.8-6.6-13.2c0-8.7,6.6-15.7,15.1-16.8C193.8,146.8,190.9,152.7,190.9,159.4z     M129.1,160.9c0-66.5,53.9-120.4,120.4-120.4s120.4,53.9,120.4,120.4c0,58.1-41.2,106.6-96,117.9c3.8-57,25.2-88,34.2-98.4    c8.3-3.3,14.2-11.4,14.2-20.9c0-12.5-10.1-22.6-22.6-22.6c-2.5,0-4.8,0.5-7.1,1.2c-2.2-0.7-4.6-1.2-7.1-1.2    c-2.5,0-4.8,0.5-7.1,1.2c-2.2-0.7-4.6-1.2-7.1-1.2c-2.5,0-4.8,0.5-7.1,1.2c-2.2-0.7-4.6-1.2-7.1-1.2c-2.5,0-4.8,0.5-7.1,1.2    c-2.2-0.7-4.6-1.2-7.1-1.2s-4.8,0.5-7.1,1.2c-2.2-0.7-4.6-1.2-7.1-1.2c-2.7,0-5.3,0.6-7.7,1.4c-2.4-0.9-5-1.4-7.7-1.4    c-2.2,0-4.4,0.4-6.4,1c-2-0.6-4.2-1-6.4-1c-12.5,0-22.6,10.1-22.6,22.6c0,8.5,4.8,15.9,11.8,19.7c8.2,9,31.5,40,35.4,99.7    C170.4,267.6,129.1,219,129.1,160.9z"/>
	</g>
</g>
<g id="Calque_1_-_copie_2" display="none">
	<g display="inline">
		<path fill="#000000" d="M159.7,284c16.9,21.1,26,54.5,30.8,86.4l-3.7-0.1l-0.3,9.6l5.4,0.2c0.4,3.3,0.7,6.4,1,9.6l-6.2-0.2    l-0.3,9.6l7.4,0.3c0.3,3.3,0.5,6.5,0.7,9.6l-7.8-0.3l-0.3,9.6l8.6,0.3c0.1,3.3,0.3,6.6,0.3,9.6l-8.6-0.3l-0.3,9.6l9.1,0.3v18.8    h17.9v19.1h19.2c2.5,5.5,9,9.6,16.7,9.6c7.8,0,14.3-4,16.7-9.6h19.2v-19.1h17.9v-14.8l8.8,0.3l0.3-9.6l-9-0.3c0-3,0.1-6.1,0.2-9.6    l8.5,0.3l0.3-9.6l-8.4-0.3c0.2-3.1,0.4-6.3,0.7-9.5l7.4,0.3l0.3-9.6l-6.9-0.3c0.3-3.1,0.7-6.3,1-9.5l5.6,0.2l0.3-9.6l-4.7-0.2    c4.7-33.1,13.8-68.7,31.5-90.8c30.6-38.2,53.8-69.1,53.8-114.7c0-50.2-22.7-94.8-57.7-122.7c-3.7-2.9-7.5-5.7-11.5-8.3    c-2-1.3-4-2.5-6-3.7c-4.1-2.4-8.3-4.5-12.6-6.4c-2.1-1-4.3-1.9-6.5-2.7c-4.4-1.7-8.9-3.2-13.5-4.5c-4.6-1.3-9.3-2.3-14-3.1    c-5.3-0.9-10.8-1.4-16.3-1.7c-1.8-0.1-3.7-0.1-5.6-0.1c-3.7,0-7.4,0.2-11,0.4c-3.6,0.3-7.3,0.7-10.8,1.3c-4.8,0.8-9.4,1.8-14,3.1    c-4.6,1.3-9.1,2.8-13.5,4.5c-2.2,0.9-4.4,1.8-6.5,2.7c-4.3,1.9-8.5,4.1-12.6,6.4c-2,1.2-4,2.4-6,3.7c-3.9,2.6-7.8,5.3-11.5,8.3    c-35,27.9-57.7,72.5-57.7,122.7C105.9,214.9,129.1,245.8,159.7,284z M232.3,279.9c-3-51.8-19.9-83-31-98c2-0.1,3.9-0.4,5.7-1    c2,0.6,4.2,1,6.4,1c2.7,0,5.3-0.6,7.7-1.4c2.4,0.9,5,1.4,7.7,1.4c2.5,0,4.8-0.5,7.1-1.2c2.2,0.7,4.6,1.2,7.1,1.2s4.8-0.5,7.1-1.2    c2.2,0.7,4.6,1.2,7.1,1.2c2.5,0,4.8-0.5,7.1-1.2c2.2,0.7,4.6,1.2,7.1,1.2c2.5,0,4.8-0.5,7.1-1.2c2.2,0.7,4.6,1.2,7.1,1.2    c2.5,0,4.8-0.5,7.1-1.2c1.6,0.5,3.4,0.9,5.2,1c-11.1,14.9-28.1,46.2-31.1,98.1c-5.6,0.8-11.3,1.4-17.2,1.4    C243.6,281.2,237.9,280.7,232.3,279.9z M292.6,175c-1.2-0.5-2.2-1.4-3.2-2.2c2.8-3.8,4.5-8.4,4.5-13.4c0-5.1-1.7-9.7-4.5-13.4    c1-0.8,2-1.6,3.2-2.2c5.9,2.7,10.1,8.6,10.1,15.6C302.7,166.4,298.5,172.3,292.6,175z M308.1,159.4c0-6.9-3.1-13-8-17.1    c9.3,0.2,16.8,7.8,16.8,17.1c0,5.8-3.1,10.7-7.5,13.8l-7.1,2.9c-0.8,0.1-1.4,0.4-2.2,0.5C304.9,172.4,308.1,166.3,308.1,159.4z     M285.5,168.6c-1.8-2.7-3-5.7-3-9.2s1.3-6.5,3-9.2c1.8,2.7,3,5.7,3,9.2S287.3,165.9,285.5,168.6z M281.6,172.8    c-1,0.8-2,1.6-3.2,2.2c-1.2-0.5-2.2-1.4-3.2-2.2c1.4-1.8,2.4-3.9,3.2-6.1C279.2,169,280.3,171,281.6,172.8z M278.4,152.1    c-0.8-2.2-1.8-4.2-3.2-6.1c1-0.8,2-1.6,3.2-2.2c1.2,0.5,2.2,1.4,3.2,2.2C280.3,147.8,279.2,149.9,278.4,152.1z M271.4,168.6    c-1.8-2.7-3-5.7-3-9.2s1.3-6.5,3-9.2c1.8,2.7,3,5.7,3,9.2S273.1,165.9,271.4,168.6z M267.5,172.8c-1,0.8-2,1.6-3.2,2.2    c-1.2-0.5-2.2-1.4-3.2-2.2c1.4-1.8,2.4-3.9,3.2-6.1C265,169,266.1,171,267.5,172.8z M264.3,152.1c-0.8-2.2-1.8-4.2-3.2-6.1    c1-0.8,2-1.6,3.2-2.2c1.2,0.5,2.2,1.4,3.2,2.2C266.1,147.8,265,149.9,264.3,152.1z M257.2,168.6c-1.8-2.7-3-5.7-3-9.2    s1.3-6.5,3-9.2c1.8,2.7,3,5.7,3,9.2S259,165.9,257.2,168.6z M253.3,172.8c-1,0.8-2,1.6-3.2,2.2c-1.2-0.5-2.2-1.4-3.2-2.2    c1.4-1.8,2.4-3.9,3.2-6.1C250.9,169,251.9,171,253.3,172.8z M250.1,152.1c-0.8-2.2-1.8-4.2-3.2-6.1c1-0.8,2-1.6,3.2-2.2    c1.2,0.5,2.2,1.4,3.2,2.2C251.9,147.8,250.9,149.9,250.1,152.1z M243,168.6c-1.8-2.7-3-5.7-3-9.2s1.3-6.5,3-9.2    c1.8,2.7,3,5.7,3,9.2S244.8,165.9,243,168.6z M239.2,172.8c-1,0.8-2,1.6-3.2,2.2c-1.5-0.7-2.8-1.7-4-2.7c1.6-2.3,2.7-4.8,3.4-7.6    C236,167.7,237.4,170.4,239.2,172.8z M235.3,154.2c-0.7-2.8-1.8-5.3-3.4-7.6c1.2-1.1,2.5-2,4-2.7c1.2,0.5,2.2,1.4,3.2,2.2    C237.4,148.4,236,151.2,235.3,154.2z M230.6,159.4c0,3-1,5.7-2.4,8.2c-1.4-2.5-2.4-5.2-2.4-8.2c0-3,1-5.7,2.4-8.2    C229.6,153.7,230.6,156.4,230.6,159.4z M228.2,142.5c-0.1,0-0.1-0.1-0.2-0.1c0.1,0,0.3-0.1,0.4-0.1    C228.4,142.4,228.3,142.4,228.2,142.5z M228.2,176.3c0.1,0.1,0.2,0.1,0.3,0.2c-0.1,0-0.3-0.1-0.4-0.1    C228.1,176.4,228.2,176.4,228.2,176.3z M224.5,172.3c-1,0.9-2.2,1.7-3.4,2.3c-0.9-0.5-1.7-1.1-2.5-1.7c1.4-1.8,2.4-3.9,3.2-6.1    C222.5,168.7,223.4,170.6,224.5,172.3z M221.8,152.1c-0.8-2.2-1.8-4.2-3.2-6.1c0.8-0.6,1.6-1.2,2.5-1.7c1.2,0.6,2.3,1.4,3.4,2.3    C223.4,148.2,222.5,150.1,221.8,152.1z M214.7,168.6c-1.8-2.7-3-5.7-3-9.2s1.3-6.5,3-9.2c1.8,2.7,3,5.7,3,9.2    S216.5,165.9,214.7,168.6z M206.3,159.4c0,5,1.7,9.7,4.5,13.4c-1.2,0.9-2.4,1.9-3.8,2.5c-6.3-2.5-10.8-8.7-10.8-15.9    c0-7.2,4.5-13.3,10.8-15.9c1.4,0.6,2.6,1.5,3.8,2.5C208,149.8,206.3,154.4,206.3,159.4z M190.9,159.4c0,6.7,3,12.6,7.6,16.8    c-0.7-0.1-1.4-0.2-2.1-0.4l-6.3-3.1c-3.9-3.1-6.6-7.8-6.6-13.2c0-8.7,6.6-15.7,15.1-16.8C193.8,146.8,190.9,152.7,190.9,159.4z     M129.1,160.9c0-66.5,53.9-120.4,120.4-120.4s120.4,53.9,120.4,120.4c0,58.1-41.2,106.6-96,117.9c3.8-57,25.2-88,34.2-98.4    c8.3-3.3,14.2-11.4,14.2-20.9c0-12.5-10.1-22.6-22.6-22.6c-2.5,0-4.8,0.5-7.1,1.2c-2.2-0.7-4.6-1.2-7.1-1.2    c-2.5,0-4.8,0.5-7.1,1.2c-2.2-0.7-4.6-1.2-7.1-1.2c-2.5,0-4.8,0.5-7.1,1.2c-2.2-0.7-4.6-1.2-7.1-1.2c-2.5,0-4.8,0.5-7.1,1.2    c-2.2-0.7-4.6-1.2-7.1-1.2s-4.8,0.5-7.1,1.2c-2.2-0.7-4.6-1.2-7.1-1.2c-2.7,0-5.3,0.6-7.7,1.4c-2.4-0.9-5-1.4-7.7-1.4    c-2.2,0-4.4,0.4-6.4,1c-2-0.6-4.2-1-6.4-1c-12.5,0-22.6,10.1-22.6,22.6c0,8.5,4.8,15.9,11.8,19.7c8.2,9,31.5,40,35.4,99.7    C170.4,267.6,129.1,219,129.1,160.9z"/>
	</g>
</g>
<g id="Calque_1_-_copie" display="none">
	<g display="inline">
		<path fill="#000000" d="M159.7,284c16.9,21.1,26,54.5,30.8,86.4l-3.7-0.1l-0.3,9.6l5.4,0.2c0.4,3.3,0.7,6.4,1,9.6l-6.2-0.2    l-0.3,9.6l7.4,0.3c0.3,3.3,0.5,6.5,0.7,9.6l-7.8-0.3l-0.3,9.6l8.6,0.3c0.1,3.3,0.3,6.6,0.3,9.6l-8.6-0.3l-0.3,9.6l9.1,0.3v18.8    h17.9v19.1h19.2c2.5,5.5,9,9.6,16.7,9.6c7.8,0,14.3-4,16.7-9.6h19.2v-19.1h17.9v-14.8l8.8,0.3l0.3-9.6l-9-0.3c0-3,0.1-6.1,0.2-9.6    l8.5,0.3l0.3-9.6l-8.4-0.3c0.2-3.1,0.4-6.3,0.7-9.5l7.4,0.3l0.3-9.6l-6.9-0.3c0.3-3.1,0.7-6.3,1-9.5l5.6,0.2l0.3-9.6l-4.7-0.2    c4.7-33.1,13.8-68.7,31.5-90.8c30.6-38.2,53.8-69.1,53.8-114.7c0-50.2-22.7-94.8-57.7-122.7c-3.7-2.9-7.5-5.7-11.5-8.3    c-2-1.3-4-2.5-6-3.7c-4.1-2.4-8.3-4.5-12.6-6.4c-2.1-1-4.3-1.9-6.5-2.7c-4.4-1.7-8.9-3.2-13.5-4.5c-4.6-1.3-9.3-2.3-14-3.1    c-5.3-0.9-10.8-1.4-16.3-1.7c-1.8-0.1-3.7-0.1-5.6-0.1c-3.7,0-7.4,0.2-11,0.4c-3.6,0.3-7.3,0.7-10.8,1.3c-4.8,0.8-9.4,1.8-14,3.1    c-4.6,1.3-9.1,2.8-13.5,4.5c-2.2,0.9-4.4,1.8-6.5,2.7c-4.3,1.9-8.5,4.1-12.6,6.4c-2,1.2-4,2.4-6,3.7c-3.9,2.6-7.8,5.3-11.5,8.3    c-35,27.9-57.7,72.5-57.7,122.7C105.9,214.9,129.1,245.8,159.7,284z M232.3,279.9c-3-51.8-19.9-83-31-98c2-0.1,3.9-0.4,5.7-1    c2,0.6,4.2,1,6.4,1c2.7,0,5.3-0.6,7.7-1.4c2.4,0.9,5,1.4,7.7,1.4c2.5,0,4.8-0.5,7.1-1.2c2.2,0.7,4.6,1.2,7.1,1.2s4.8-0.5,7.1-1.2    c2.2,0.7,4.6,1.2,7.1,1.2c2.5,0,4.8-0.5,7.1-1.2c2.2,0.7,4.6,1.2,7.1,1.2c2.5,0,4.8-0.5,7.1-1.2c2.2,0.7,4.6,1.2,7.1,1.2    c2.5,0,4.8-0.5,7.1-1.2c1.6,0.5,3.4,0.9,5.2,1c-11.1,14.9-28.1,46.2-31.1,98.1c-5.6,0.8-11.3,1.4-17.2,1.4    C243.6,281.2,237.9,280.7,232.3,279.9z M292.6,175c-1.2-0.5-2.2-1.4-3.2-2.2c2.8-3.8,4.5-8.4,4.5-13.4c0-5.1-1.7-9.7-4.5-13.4    c1-0.8,2-1.6,3.2-2.2c5.9,2.7,10.1,8.6,10.1,15.6C302.7,166.4,298.5,172.3,292.6,175z M308.1,159.4c0-6.9-3.1-13-8-17.1    c9.3,0.2,16.8,7.8,16.8,17.1c0,5.8-3.1,10.7-7.5,13.8l-7.1,2.9c-0.8,0.1-1.4,0.4-2.2,0.5C304.9,172.4,308.1,166.3,308.1,159.4z     M285.5,168.6c-1.8-2.7-3-5.7-3-9.2s1.3-6.5,3-9.2c1.8,2.7,3,5.7,3,9.2S287.3,165.9,285.5,168.6z M281.6,172.8    c-1,0.8-2,1.6-3.2,2.2c-1.2-0.5-2.2-1.4-3.2-2.2c1.4-1.8,2.4-3.9,3.2-6.1C279.2,169,280.3,171,281.6,172.8z M278.4,152.1    c-0.8-2.2-1.8-4.2-3.2-6.1c1-0.8,2-1.6,3.2-2.2c1.2,0.5,2.2,1.4,3.2,2.2C280.3,147.8,279.2,149.9,278.4,152.1z M271.4,168.6    c-1.8-2.7-3-5.7-3-9.2s1.3-6.5,3-9.2c1.8,2.7,3,5.7,3,9.2S273.1,165.9,271.4,168.6z M267.5,172.8c-1,0.8-2,1.6-3.2,2.2    c-1.2-0.5-2.2-1.4-3.2-2.2c1.4-1.8,2.4-3.9,3.2-6.1C265,169,266.1,171,267.5,172.8z M264.3,152.1c-0.8-2.2-1.8-4.2-3.2-6.1    c1-0.8,2-1.6,3.2-2.2c1.2,0.5,2.2,1.4,3.2,2.2C266.1,147.8,265,149.9,264.3,152.1z M257.2,168.6c-1.8-2.7-3-5.7-3-9.2    s1.3-6.5,3-9.2c1.8,2.7,3,5.7,3,9.2S259,165.9,257.2,168.6z M253.3,172.8c-1,0.8-2,1.6-3.2,2.2c-1.2-0.5-2.2-1.4-3.2-2.2    c1.4-1.8,2.4-3.9,3.2-6.1C250.9,169,251.9,171,253.3,172.8z M250.1,152.1c-0.8-2.2-1.8-4.2-3.2-6.1c1-0.8,2-1.6,3.2-2.2    c1.2,0.5,2.2,1.4,3.2,2.2C251.9,147.8,250.9,149.9,250.1,152.1z M243,168.6c-1.8-2.7-3-5.7-3-9.2s1.3-6.5,3-9.2    c1.8,2.7,3,5.7,3,9.2S244.8,165.9,243,168.6z M239.2,172.8c-1,0.8-2,1.6-3.2,2.2c-1.5-0.7-2.8-1.7-4-2.7c1.6-2.3,2.7-4.8,3.4-7.6    C236,167.7,237.4,170.4,239.2,172.8z M235.3,154.2c-0.7-2.8-1.8-5.3-3.4-7.6c1.2-1.1,2.5-2,4-2.7c1.2,0.5,2.2,1.4,3.2,2.2    C237.4,148.4,236,151.2,235.3,154.2z M230.6,159.4c0,3-1,5.7-2.4,8.2c-1.4-2.5-2.4-5.2-2.4-8.2c0-3,1-5.7,2.4-8.2    C229.6,153.7,230.6,156.4,230.6,159.4z M228.2,142.5c-0.1,0-0.1-0.1-0.2-0.1c0.1,0,0.3-0.1,0.4-0.1    C228.4,142.4,228.3,142.4,228.2,142.5z M228.2,176.3c0.1,0.1,0.2,0.1,0.3,0.2c-0.1,0-0.3-0.1-0.4-0.1    C228.1,176.4,228.2,176.4,228.2,176.3z M224.5,172.3c-1,0.9-2.2,1.7-3.4,2.3c-0.9-0.5-1.7-1.1-2.5-1.7c1.4-1.8,2.4-3.9,3.2-6.1    C222.5,168.7,223.4,170.6,224.5,172.3z M221.8,152.1c-0.8-2.2-1.8-4.2-3.2-6.1c0.8-0.6,1.6-1.2,2.5-1.7c1.2,0.6,2.3,1.4,3.4,2.3    C223.4,148.2,222.5,150.1,221.8,152.1z M214.7,168.6c-1.8-2.7-3-5.7-3-9.2s1.3-6.5,3-9.2c1.8,2.7,3,5.7,3,9.2    S216.5,165.9,214.7,168.6z M206.3,159.4c0,5,1.7,9.7,4.5,13.4c-1.2,0.9-2.4,1.9-3.8,2.5c-6.3-2.5-10.8-8.7-10.8-15.9    c0-7.2,4.5-13.3,10.8-15.9c1.4,0.6,2.6,1.5,3.8,2.5C208,149.8,206.3,154.4,206.3,159.4z M190.9,159.4c0,6.7,3,12.6,7.6,16.8    c-0.7-0.1-1.4-0.2-2.1-0.4l-6.3-3.1c-3.9-3.1-6.6-7.8-6.6-13.2c0-8.7,6.6-15.7,15.1-16.8C193.8,146.8,190.9,152.7,190.9,159.4z     M129.1,160.9c0-66.5,53.9-120.4,120.4-120.4s120.4,53.9,120.4,120.4c0,58.1-41.2,106.6-96,117.9c3.8-57,25.2-88,34.2-98.4    c8.3-3.3,14.2-11.4,14.2-20.9c0-12.5-10.1-22.6-22.6-22.6c-2.5,0-4.8,0.5-7.1,1.2c-2.2-0.7-4.6-1.2-7.1-1.2    c-2.5,0-4.8,0.5-7.1,1.2c-2.2-0.7-4.6-1.2-7.1-1.2c-2.5,0-4.8,0.5-7.1,1.2c-2.2-0.7-4.6-1.2-7.1-1.2c-2.5,0-4.8,0.5-7.1,1.2    c-2.2-0.7-4.6-1.2-7.1-1.2s-4.8,0.5-7.1,1.2c-2.2-0.7-4.6-1.2-7.1-1.2c-2.7,0-5.3,0.6-7.7,1.4c-2.4-0.9-5-1.4-7.7-1.4    c-2.2,0-4.4,0.4-6.4,1c-2-0.6-4.2-1-6.4-1c-12.5,0-22.6,10.1-22.6,22.6c0,8.5,4.8,15.9,11.8,19.7c8.2,9,31.5,40,35.4,99.7    C170.4,267.6,129.1,219,129.1,160.9z"/>
	</g>
</g>
<g id="Calque_1">
	<g>
		<g>
			<path d="M249.2,154.5c-0.6,0.2-0.9,0.3-1.5,0.6c-0.4-1-0.5-1.5-0.9-2.5c-0.6,0.5-0.9,0.8-1.6,1.3c0.5,0.7,1,1.4,1.5,2.1     C247.7,155.4,248.2,155.1,249.2,154.5z"/>
			<path d="M252.4,156.1c-0.4-0.8-0.7-1.5-1.1-2.3c-0.5,0.2-0.7,0.3-1.2,0.4c0.6,1,0.8,1.4,1.4,2.4     C251.9,156.4,252.1,156.3,252.4,156.1z"/>
			<path d="M249.7,161.7c0.5-0.2,0.7-0.3,1.2-0.4c-0.6-1-0.8-1.4-1.4-2.4c-0.4,0.2-0.5,0.3-0.9,0.5     C249,160.1,249.3,160.9,249.7,161.7z"/>
			<path d="M249.9,198.1c-1.3-0.8-2-1.1-3.3-1.9c-0.5,0.7-1,1.4-1.5,2.1c0.9,0.8,1.4,1.1,2.3,1.9     C248.4,199.3,248.9,198.9,249.9,198.1z"/>
			<path d="M253.8,228.2c0.9-10.2,9.1-18.4,19.3-19.3c0-3.1,0-4.7,0-7.8c-7.3,0.5-13.8,3.6-18.6,8.5c-4.8,4.8-8,11.4-8.5,18.6     C249.2,228.2,250.7,228.2,253.8,228.2z"/>
			<path d="M246.1,203.3c0.8,0.7,1.2,1,2.1,1.7c0.6-0.6,1.2-1.2,1.8-1.8c-0.8-0.9-1.1-1.4-1.9-2.3     C247.3,201.9,246.9,202.4,246.1,203.3z"/>
			<path d="M253.3,160.3c0.4,1,0.5,1.5,0.9,2.5c0.6-0.5,0.9-0.8,1.6-1.3c-0.5-0.7-1-1.4-1.5-2.1c-1,0.6-1.5,0.9-2.5,1.5     C252.4,160.7,252.7,160.6,253.3,160.3z"/>
			<path d="M237,174.1c3.1,0,4.7,0,7.8,0c-0.5-7.3-3.6-13.8-8.5-18.6c-4.8-4.8-11.4-8-18.6-8.5c0,3.1,0,4.7,0,7.8     C227.9,155.8,236.1,163.9,237,174.1z"/>
			<circle cx="145.1" cy="139.3" r="9.7"/>
			<path d="M123.8,141.3c-3.1,0-4.7,0-7.8,0c0.5,7.3,3.6,13.8,8.5,18.6s11.4,8,18.6,8.5c0-3.1,0-4.7,0-7.8     C132.9,159.7,124.7,151.5,123.8,141.3z"/>
			<path d="M147,160.6c0,3.1,0,4.7,0,7.8c7.3-0.5,13.8-3.6,18.6-8.5c4.8-4.8,8-11.4,8.5-18.6c-3.1,0-4.7,0-7.8,0     C165.4,151.5,157.3,159.7,147,160.6z"/>
			<path d="M186.3,153.9c-1-0.8-1.4-1.2-2.4-2c-0.4,1.2-0.6,1.8-1.1,2.9c0.8,0.5,1.2,0.7,2,1.2C185.3,155.3,185.8,154.6,186.3,153.9     z"/>
			<path d="M213.8,154.8c0-3.1,0-4.7,0-7.8c-7.3,0.5-13.8,3.6-18.6,8.5c-4.8,4.8-8,11.4-8.5,18.6c3.1,0,4.7,0,7.8,0     C195.4,163.9,203.5,155.8,213.8,154.8z"/>
			<path d="M283.3,168.4c0-3.1,0-4.7,0-7.8c-10.2-0.9-18.4-9.1-19.3-19.3c-3.1,0-4.7,0-7.8,0c0.5,7.3,3.6,13.8,8.5,18.6     C269.5,164.7,276.1,167.9,283.3,168.4z"/>
			<path d="M143.1,118.1c0-3.1,0-4.7,0-7.8c-7.3,0.5-13.8,3.6-18.6,8.5s-8,11.4-8.5,18.6c3.1,0,4.7,0,7.8,0     C124.7,127.1,132.9,119,143.1,118.1z"/>
			<path d="M283.3,118.1c0-3.1,0-4.7,0-7.8c-7.3,0.5-13.8,3.6-18.6,8.5c-4.8,4.8-8,11.4-8.5,18.6c3.1,0,4.7,0,7.8,0     C264.9,127.1,273.1,119,283.3,118.1z"/>
			<path d="M235.1,117.1c0-1.6,0-2.3,0-3.9c-5.1-0.5-9.2-4.5-9.7-9.7c-1.6,0-2.3,0-3.9,0C222.1,110.8,227.9,116.6,235.1,117.1z"/>
			<path d="M218,94.9c0.4,0.2,0.7,0.2,1.1,0.4c0.2-0.4,0.3-0.8,0.5-1.2c-0.7-0.4-1-0.6-1.7-1c0.2-0.3,0.3-0.5,0.5-0.9     c-0.5-0.2-0.7-0.3-1.2-0.4c-0.2,0.4-0.4,0.8-0.6,1.2c0.7,0.4,1.1,0.6,1.8,1C218.3,94.5,218.2,94.6,218,94.9z"/>
			<path d="M235.1,91.9c0-1.6,0-2.3,0-3.9c-7.3,0.5-13.1,6.3-13.6,13.6c1.6,0,2.3,0,3.9,0C225.9,96.5,230,92.4,235.1,91.9z"/>
			<path d="M246.7,101.6c1.6,0,2.3,0,3.9,0c-0.5-7.3-6.3-13.1-13.6-13.6c0,1.6,0,2.3,0,3.9C242.2,92.4,246.3,96.5,246.7,101.6z"/>
			<path d="M237.1,113.2c0,1.6,0,2.3,0,3.9c7.3-0.5,13.1-6.3,13.6-13.6c-1.6,0-2.3,0-3.9,0C246.3,108.7,242.2,112.7,237.1,113.2z"/>
			<circle cx="236.1" cy="102.6" r="4.9"/>
			<path d="M200.2,95.5c0,1.7,0,2.5,0,4.1c7.7-0.5,13.9-6.7,14.4-14.4c-1.7,0-2.5,0-4.1,0C210,90.7,205.7,95,200.2,95.5z"/>
			<path d="M147,110.3c0,3.1,0,4.7,0,7.8c10.2,0.9,18.4,9.1,19.3,19.3c3.1,0,4.7,0,7.8,0c-0.5-7.3-3.6-13.8-8.5-18.6     C160.8,113.9,154.3,110.8,147,110.3z"/>
			<path d="M210.5,83.2c1.7,0,2.5,0,4.1,0c-0.5-7.7-6.7-13.9-14.4-14.4c0,1.7,0,2.5,0,4.1C205.7,73.5,210,77.8,210.5,83.2z"/>
			<circle cx="285.3" cy="139.3" r="9.7"/>
			<path d="M287.2,160.6c0,3.1,0,4.7,0,7.8c7.3-0.5,13.8-3.6,18.6-8.5s8-11.4,8.5-18.6c-3.1,0-4.7,0-7.8,0     C305.6,151.5,297.5,159.7,287.2,160.6z"/>
			<path d="M306.5,137.4c3.1,0,4.7,0,7.8,0c-0.5-7.3-3.6-13.8-8.5-18.6s-11.4-8-18.6-8.5c0,3.1,0,4.7,0,7.8     C297.5,119,305.6,127.1,306.5,137.4z"/>
			<circle cx="199.2" cy="84.3" r="5.1"/>
			<path d="M198.2,73c0-1.7,0-2.5,0-4.1c-7.7,0.5-13.9,6.7-14.4,14.4c1.7,0,2.5,0,4.1,0C188.4,77.8,192.8,73.5,198.2,73z"/>
			<path d="M198.2,99.7c0-1.7,0-2.5,0-4.1c-5.4-0.5-9.8-4.8-10.2-10.2c-1.7,0-2.5,0-4.1,0C184.3,93,190.5,99.2,198.2,99.7z"/>
			<path d="M253.8,232.1c-3.1,0-4.7,0-7.8,0c0.5,7.3,3.6,13.8,8.5,18.6c4.8,4.8,11.4,8,18.6,8.5c0-3.1,0-4.7,0-7.8     C262.9,250.5,254.8,242.4,253.8,232.1z"/>
			<circle cx="275.1" cy="230.2" r="9.7"/>
			<path d="M277,251.4c0,3.1,0,4.7,0,7.8c7.3-0.5,13.8-3.6,18.6-8.5c4.8-4.8,8-11.4,8.5-18.6c-3.1,0-4.7,0-7.8,0     C295.4,242.4,287.3,250.5,277,251.4z"/>
			<path d="M277,201.1c0,3.1,0,4.7,0,7.8c10.2,0.9,18.4,9.1,19.3,19.3c3.1,0,4.7,0,7.8,0c-0.5-7.3-3.6-13.8-8.5-18.6     C290.8,204.8,284.3,201.6,277,201.1z"/>
			<path d="M174.5,161.5c1,0.8,1.4,1.2,2.4,2c0.4-1.2,0.6-1.8,1.1-2.9c-0.8-0.5-1.2-0.7-2-1.2C175.5,160.1,175,160.8,174.5,161.5z"/>
			<path d="M240.9,208.2c1.3,0.8,2,1.1,3.3,1.9c0.5-0.7,1-1.4,1.5-2.1c-0.9-0.8-1.4-1.1-2.3-1.9     C242.4,206.9,241.9,207.3,240.9,208.2z"/>
			<path d="M237,178c-0.9,10.2-9.1,18.4-19.3,19.3c0,3.1,0,4.7,0,7.8c7.3-0.5,13.8-3.6,18.6-8.5c4.8-4.8,8-11.4,8.5-18.6     C241.6,178,240.1,178,237,178z"/>
			<circle cx="215.7" cy="176.1" r="9.7"/>
			<path d="M311.9,211.5c-0.1-0.4-0.2-0.9-0.4-1.3c-0.3,0.1-0.5,0.1-0.9,0.1c0.3,0.4,0.4,0.7,0.6,1.1c-0.5,0.3-0.7,0.4-1.1,0.7     C310.9,211.9,311.2,211.8,311.9,211.5z"/>
			<path d="M310.7,214.2c-0.3-0.8-0.4-1.1-0.7-1.9c-0.8,0.5-1.2,0.7-2,1.2c0.4,0.8,0.7,1.5,1.1,2.3c1.5-0.5,2.2-0.8,3.7-1.3     c0.1,0.2,0.1,0.3,0.2,0.4c0.1-0.1,0.2-0.1,0.3-0.2c-0.2-0.4-0.4-0.8-0.6-1.2C311.8,213.7,311.5,213.9,310.7,214.2z"/>
			<path d="M331.7,190.4c0,1.7,0,2.5,0,4.1c5.4,0.5,9.8,4.8,10.2,10.2c1.7,0,2.5,0,4.1,0C345.5,197.1,339.4,190.9,331.7,190.4z"/>
			<path d="M441.3,270.7c-5.9,15.8-24.3,14.1-23.6,20.2c0.8,6.1,2.6,31.9,0.2,33.8c-2.4,1.8-8.7,7.4-8.7,7.4     c10.2,4.9,7.3,16,4.3,18.9c-3,2.9-16.3,8.1-19.2,11.3c-2.8,3.1-2.8,1-2.4,5.5c0.2,2.3,1.7,9.2,0.2,17.1     c-1.5,7.9-6,16.7-17.7,22.6c-10.3,5.2-21.8,6.4-31.6,6.4c-8,0-14.9-0.8-18.9-0.8c-2.3,0-3.6,0.3-3.7,1.1c-0.3,2-4.9,13-9.4,24.3     c-4.5,11.3-8.9,22.9-8.9,25.9c0,1.2,0.9,3.6,0.2,6.6c-13.3,0-25.5,0-36.9,0c-11.4,0-22.1,0-32.5,0c-10.3,0-20.3,0-30.3,0     c-10,0-19.9,0-30.3,0s-21,0-32.5,0c-11.4,0-23.6,0-36.9,0c4.1-15.3,7-30,9-43.8c2-13.8,3.2-26.8,3.8-38.7     c0.6-11.9,0.6-22.8,0.3-32.4c-0.3-9.6-0.8-17.9-1.4-24.8s-1.1-12.3-1.3-16c-0.3-4.7-3.1-12-7.2-20.8c-4.1-8.8-9.6-18.9-15.4-29.3     c-5.8-10.4-11.8-20.9-17-30.4c-5.2-9.5-9.5-17.9-11.9-23.9c-3.2-8.1-4.3-15.8-3.8-24.1c0.5-8.3,2.5-17.2,5.6-27.7     c3.1-10.5,7.1-22.6,11.7-37.3c3.4-11,9-21.2,15.7-30.4c6.7-9.2,14.4-17.5,22.2-24.6c7.7-7.1,15.5-13,22.1-17.6     c6.6-4.6,12.2-7.8,15.5-9.4c13.3-6.6,18.3-6,25.6-8.1c2.8-0.8,8.7-1.5,15.9-1.9c7.2-0.5,15.8-0.8,23.9-0.8     c4.9,0,9.6,0.1,13.7,0.3c9.1,0.5,24.6,4.4,38.9,8.4c14.2,4.1,27.2,8.3,31.4,9.4c4.1,1.1,15.1,5.7,26.7,11.2     c11.7,5.5,24,11.9,31,16.5c7,4.7,14.1,12.1,19.8,18.8c5.7,6.7,10,12.7,11.3,14.5c2.6,3.5,6.3,14.9,7.4,17.9     c1.2,2.9,4.8,10.4,6.8,13.1c2,2.7,6.4,9.9,8.5,14.1c2.1,4.2,1.6,15.1,3.3,16c1.6,0.9,3.7,3.2,2.5,5.8c-1.2,2.6-4.4,5.6-6,7.2     c-1.5,1.6-6.6,16.1-6.9,17.6c0,0.2,0,0.3,0.2,0.3c0.9,0,4.9-3.6,4.9-3.6c0,1.2-3.5,3.8-4.2,4.5c-0.5,0.5-0.8,0.7-1,1.5     c0,0,0.5,13.4,7.4,19.7c0,0,2.9,4,4.3,5.9c1.1,1.4,2,2.8,2.8,3.9c0.6,0.8,1,1.5,1.3,2c1.9,3.3,2.9,5.1,4.5,7.7     c1.6,2.6,6.9,9.4,6.9,9.4C443.5,264.1,441.3,270.7,441.3,270.7z M177.6,85.3c0.8,0,1.3,0,2.1,0c0,0.5,0.1,0.9,0.1,1.3     c-0.8,0.1-1.2,0.2-2.1,0.4c0.1,0.8,0.2,1.2,0.4,2c0.8-0.1,1.2-0.2,2.1-0.4c0.1,0.4,0.2,0.9,0.4,1.3c-0.8,0.3-1.2,0.4-2,0.7     c0.3,0.8,0.4,1.2,0.7,1.9c0.8-0.3,1.2-0.4,2-0.7c0.2,0.4,0.4,0.8,0.6,1.2c-0.7,0.4-1.1,0.6-1.8,1c0.4,0.7,0.6,1.1,1,1.8     c0.7-0.4,1.1-0.6,1.8-1c0.2,0.4,0.5,0.7,0.8,1.1c-0.6,0.5-1,0.8-1.6,1.3c0.5,0.6,0.8,0.9,1.3,1.6c0.6-0.5,1-0.8,1.6-1.3     c0.3,0.3,0.6,0.6,1,1c-0.5,0.6-0.8,1-1.3,1.6c0.6,0.5,0.9,0.8,1.6,1.3c0.5-0.6,0.8-1,1.3-1.6c0.4,0.3,0.7,0.5,1.1,0.8     c-0.4,0.7-0.6,1.1-1,1.8c0.7,0.4,1.1,0.6,1.8,1c0.4-0.7,0.6-1.1,1-1.8c0.4,0.2,0.8,0.4,1.2,0.6c-0.3,0.8-0.4,1.2-0.7,2     c0.8,0.3,1.2,0.4,1.9,0.7c0.3-0.8,0.4-1.2,0.7-2c0.4,0.1,0.9,0.2,1.3,0.4c-0.1,0.8-0.2,1.2-0.4,2c0.8,0.1,1.2,0.2,2,0.4     c0.1-0.8,0.2-1.2,0.4-2.1c0.4,0.1,0.9,0.1,1.3,0.1c0,0.8,0,1.3,0,2.1c0.8,0,1.2,0,2.1,0c0-0.8,0-1.3,0-2.1c0.5,0,0.9-0.1,1.3-0.1     c0.1,0.8,0.2,1.2,0.4,2.1c0.8-0.1,1.2-0.2,2-0.4c-0.1-0.8-0.2-1.2-0.4-2c0.4-0.1,0.9-0.2,1.3-0.4c0.3,0.8,0.4,1.2,0.7,2     c0.8-0.3,1.2-0.4,1.9-0.7c-0.3-0.8-0.4-1.2-0.7-2c0.4-0.2,0.8-0.4,1.2-0.6c0.4,0.7,0.6,1.1,1,1.8c0.7-0.4,1.1-0.6,1.8-1     c-0.4-0.7-0.6-1.1-1-1.8c0.4-0.2,0.7-0.5,1.1-0.8c0.5,0.6,0.8,1,1.3,1.6c0.6-0.5,0.9-0.8,1.6-1.3c-0.5-0.6-0.8-1-1.3-1.6     c0.3-0.3,0.6-0.6,1-1c0.6,0.5,1,0.8,1.6,1.3c0.5-0.6,0.8-0.9,1.3-1.6c-0.6-0.5-1-0.8-1.6-1.3c0.3-0.4,0.5-0.7,0.8-1.1     c0.5,0.3,0.8,0.5,1.3,0.8c-0.1,0.3-0.2,0.5-0.3,0.8c0.7,0.3,1.1,0.4,1.8,0.7c-0.1,0.4-0.2,0.8-0.3,1.2c-0.8-0.1-1.2-0.2-1.9-0.3     c-0.1,0.8-0.2,1.1-0.3,1.9c0.8,0.1,1.2,0.2,1.9,0.3c-0.1,0.4-0.1,0.8-0.1,1.3c-0.8,0-1.2,0-2,0c0,0.8,0,1.2,0,1.9     c0.8,0,1.2,0,2,0c0,0.4,0.1,0.9,0.1,1.3c-0.8,0.1-1.2,0.2-1.9,0.3c0.1,0.8,0.2,1.1,0.3,1.9c0.8-0.1,1.2-0.2,1.9-0.3     c0.1,0.4,0.2,0.8,0.3,1.2c-0.7,0.3-1.1,0.4-1.8,0.7c0.3,0.7,0.4,1.1,0.7,1.8c0.7-0.3,1.1-0.4,1.8-0.7c0.2,0.4,0.3,0.8,0.5,1.2     c-0.7,0.4-1,0.6-1.7,1c0.4,0.7,0.6,1,1,1.7c0.7-0.4,1-0.6,1.7-1c0.2,0.4,0.5,0.7,0.7,1c-0.6,0.5-0.9,0.8-1.5,1.3     c0.5,0.6,0.7,0.9,1.2,1.5c0.6-0.5,0.9-0.8,1.5-1.3c0.3,0.3,0.6,0.6,0.9,0.9c-0.5,0.6-0.8,0.9-1.3,1.5c0.6,0.5,0.9,0.7,1.5,1.2     c0.5-0.6,0.8-0.9,1.3-1.5c0.3,0.3,0.7,0.5,1,0.7c-0.4,0.7-0.6,1-1,1.7c0.7,0.4,1,0.6,1.7,1c0.4-0.7,0.6-1,1-1.7     c0.4,0.2,0.8,0.4,1.2,0.5c-0.3,0.7-0.4,1.1-0.7,1.8c0.7,0.3,1.1,0.4,1.8,0.7c0.3-0.7,0.4-1.1,0.7-1.8c0.4,0.1,0.8,0.2,1.2,0.3     c-0.1,0.8-0.2,1.2-0.3,1.9c0.8,0.1,1.1,0.2,1.9,0.3c0.1-0.8,0.2-1.2,0.3-1.9c0.4,0.1,0.8,0.1,1.3,0.1c0,0.8,0,1.2,0,2     c0.8,0,1.2,0,1.9,0c0-0.8,0-1.2,0-2c0.4,0,0.9-0.1,1.3-0.1c0.1,0.8,0.2,1.2,0.3,1.9c0.8-0.1,1.1-0.2,1.9-0.3     c-0.1-0.8-0.2-1.2-0.3-1.9c0.4-0.1,0.8-0.2,1.2-0.3c0.3,0.7,0.4,1.1,0.7,1.8c0.7-0.3,1.1-0.4,1.8-0.7c-0.3-0.7-0.4-1.1-0.7-1.8     c0.4-0.2,0.8-0.3,1.2-0.5c0.4,0.7,0.6,1,1,1.7c0.7-0.4,1-0.6,1.7-1c-0.4-0.7-0.6-1-1-1.7c0.4-0.2,0.7-0.5,1-0.7     c0.5,0.6,0.8,0.9,1.3,1.5c0.6-0.5,0.9-0.7,1.5-1.2c-0.5-0.6-0.8-0.9-1.3-1.5c0.3-0.3,0.6-0.6,0.9-0.9c0.6,0.5,0.9,0.8,1.5,1.3     c0.5-0.6,0.7-0.9,1.2-1.5c-0.6-0.5-0.9-0.8-1.5-1.3c0.3-0.3,0.5-0.7,0.7-1c0.7,0.4,1,0.6,1.7,1c0.4-0.7,0.6-1,1-1.7     c-0.7-0.4-1-0.6-1.7-1c0.2-0.4,0.4-0.8,0.5-1.2c0.7,0.3,1.1,0.4,1.8,0.7c0.3-0.7,0.4-1.1,0.7-1.8c-0.7-0.3-1.1-0.4-1.8-0.7     c0.1-0.4,0.2-0.8,0.3-1.2c0.8,0.1,1.2,0.2,1.9,0.3c0.1-0.8,0.2-1.1,0.3-1.9c-0.8-0.1-1.2-0.2-1.9-0.3c0.1-0.4,0.1-0.8,0.1-1.3     c0.8,0,1.2,0,2,0c0-0.8,0-1.2,0-1.9c-0.8,0-1.2,0-2,0c0-0.4-0.1-0.9-0.1-1.3c0.8-0.1,1.2-0.2,1.9-0.3c-0.1-0.8-0.2-1.1-0.3-1.9     c-0.8,0.1-1.2,0.2-1.9,0.3c-0.1-0.4-0.2-0.8-0.3-1.2c0.7-0.3,1.1-0.4,1.8-0.7c-0.3-0.7-0.4-1.1-0.7-1.8c-0.7,0.3-1.1,0.4-1.8,0.7     c-0.2-0.4-0.3-0.8-0.5-1.2c0.7-0.4,1-0.6,1.7-1c-0.4-0.7-0.6-1-1-1.7c-0.7,0.4-1,0.6-1.7,1c-0.2-0.4-0.5-0.7-0.7-1     c0.6-0.5,0.9-0.8,1.5-1.3c-0.5-0.6-0.7-0.9-1.2-1.5c-0.6,0.5-0.9,0.8-1.5,1.3c-0.3-0.3-0.6-0.6-0.9-0.9c0.5-0.6,0.8-0.9,1.3-1.5     c-0.6-0.5-0.9-0.7-1.5-1.2c-0.5,0.6-0.8,0.9-1.3,1.5c-0.3-0.3-0.7-0.5-1-0.7c0.4-0.7,0.6-1,1-1.7c-0.7-0.4-1-0.6-1.7-1     c-0.4,0.7-0.6,1-1,1.7c-0.4-0.2-0.8-0.4-1.2-0.5c0.3-0.7,0.4-1.1,0.7-1.8c-0.7-0.3-1.1-0.4-1.8-0.7c-0.3,0.7-0.4,1.1-0.7,1.8     c-0.4-0.1-0.8-0.2-1.2-0.3c0.1-0.8,0.2-1.2,0.3-1.9c-0.8-0.1-1.1-0.2-1.9-0.3c-0.1,0.8-0.2,1.2-0.3,1.9c-0.4-0.1-0.8-0.1-1.3-0.1     c0-0.8,0-1.2,0-2c-0.8,0-1.2,0-1.9,0c0,0.8,0,1.2,0,2c-0.4,0-0.9,0.1-1.3,0.1c-0.1-0.8-0.2-1.2-0.3-1.9c-0.8,0.1-1.1,0.2-1.9,0.3     c0.1,0.8,0.2,1.2,0.3,1.9c-0.4,0.1-0.8,0.2-1.2,0.3c-0.3-0.7-0.4-1.1-0.7-1.8c-0.7,0.3-1.1,0.4-1.8,0.7c0.3,0.7,0.4,1.1,0.7,1.8     c-0.4,0.2-0.8,0.3-1.2,0.5c-0.4-0.7-0.6-1-1-1.7c-0.7,0.4-1,0.6-1.7,1c0.4,0.7,0.6,1,1,1.7c-0.4,0.2-0.7,0.5-1,0.7     c-0.5-0.6-0.8-0.9-1.3-1.5c-0.6,0.5-0.9,0.7-1.5,1.2c0.5,0.6,0.8,0.9,1.3,1.5c-0.3,0.3-0.6,0.6-0.9,0.9c-0.6-0.5-0.9-0.8-1.5-1.3     c-0.5,0.6-0.7,0.9-1.2,1.5c0.6,0.5,0.9,0.8,1.5,1.3c-0.3,0.3-0.5,0.7-0.7,1c-0.5-0.3-0.7-0.4-1.2-0.7c0.2-0.5,0.3-0.7,0.4-1.2     c-0.8-0.3-1.2-0.4-2-0.7c0.1-0.4,0.2-0.9,0.4-1.3c0.8,0.1,1.2,0.2,2.1,0.4c0.1-0.8,0.2-1.2,0.4-2c-0.8-0.1-1.2-0.2-2.1-0.4     c0.1-0.4,0.1-0.9,0.1-1.3c0.8,0,1.3,0,2.1,0c0-0.8,0-1.2,0-2.1c-0.8,0-1.3,0-2.1,0c0-0.5-0.1-0.9-0.1-1.3     c0.8-0.1,1.2-0.2,2.1-0.4c-0.1-0.8-0.2-1.2-0.4-2c-0.8,0.1-1.2,0.2-2.1,0.4c-0.1-0.4-0.2-0.9-0.4-1.3c0.8-0.3,1.2-0.4,2-0.7     c-0.3-0.8-0.4-1.2-0.7-1.9c-0.8,0.3-1.2,0.4-2,0.7c-0.2-0.4-0.4-0.8-0.6-1.2c0.7-0.4,1.1-0.6,1.8-1c-0.4-0.7-0.6-1.1-1-1.8     c-0.7,0.4-1.1,0.6-1.8,1c-0.2-0.4-0.5-0.7-0.8-1.1c0.6-0.5,1-0.8,1.6-1.3c-0.5-0.6-0.8-0.9-1.3-1.6c-0.6,0.5-1,0.8-1.6,1.3     c-0.3-0.3-0.6-0.6-1-1c0.5-0.6,0.8-1,1.3-1.6c-0.6-0.5-0.9-0.8-1.6-1.3c-0.5,0.6-0.8,1-1.3,1.6c-0.4-0.3-0.7-0.5-1.1-0.8     c0.4-0.7,0.6-1.1,1-1.8c-0.7-0.4-1.1-0.6-1.8-1c-0.4,0.7-0.6,1.1-1,1.8c-0.4-0.2-0.8-0.4-1.2-0.6c0.3-0.8,0.4-1.2,0.7-2     c-0.8-0.3-1.2-0.4-1.9-0.7c-0.3,0.8-0.4,1.2-0.7,2c-0.4-0.1-0.9-0.2-1.3-0.4c0.1-0.8,0.2-1.2,0.4-2.1c-0.8-0.1-1.2-0.2-2-0.4     c-0.1,0.8-0.2,1.2-0.4,2.1c-0.4-0.1-0.9-0.1-1.3-0.1c0-0.8,0-1.3,0-2.1c-0.8,0-1.2,0-2.1,0c0,0.8,0,1.3,0,2.1     c-0.5,0-0.9,0.1-1.3,0.1c-0.1-0.8-0.2-1.2-0.4-2.1c-0.8,0.1-1.2,0.2-2,0.4c0.1,0.8,0.2,1.2,0.4,2.1c-0.4,0.1-0.9,0.2-1.3,0.4     c-0.3-0.8-0.4-1.2-0.7-2c-0.8,0.3-1.2,0.4-1.9,0.7c0.3,0.8,0.4,1.2,0.7,2c-0.4,0.2-0.8,0.4-1.2,0.6c-0.4-0.7-0.6-1.1-1-1.8     c-0.7,0.4-1.1,0.6-1.8,1c0.4,0.7,0.6,1.1,1,1.8c-0.4,0.2-0.7,0.5-1.1,0.8c-0.5-0.6-0.8-1-1.3-1.6c-0.6,0.5-0.9,0.8-1.6,1.3     c0.5,0.6,0.8,1,1.3,1.6c-0.3,0.3-0.6,0.6-1,1c-0.6-0.5-1-0.8-1.6-1.3c-0.5,0.6-0.8,0.9-1.3,1.6c0.6,0.5,1,0.8,1.6,1.3     c-0.3,0.4-0.5,0.7-0.8,1.1c-0.7-0.4-1.1-0.6-1.8-1c-0.4,0.7-0.6,1.1-1,1.8c0.7,0.4,1.1,0.6,1.8,1c-0.2,0.4-0.4,0.8-0.6,1.2     c-0.8-0.3-1.2-0.4-2-0.7c-0.3,0.8-0.4,1.2-0.7,1.9c0.8,0.3,1.2,0.4,2,0.7c-0.1,0.4-0.2,0.9-0.4,1.3c-0.8-0.1-1.2-0.2-2.1-0.4     c-0.1,0.8-0.2,1.2-0.4,2c0.8,0.1,1.2,0.2,2.1,0.4c-0.1,0.4-0.1,0.9-0.1,1.3c-0.8,0-1.3,0-2.1,0C177.6,84,177.6,84.5,177.6,85.3z      M352.3,204.8c-0.8,0-1.3,0-2.1,0c0-0.5-0.1-0.9-0.1-1.3c0.8-0.1,1.2-0.2,2.1-0.4c-0.1-0.8-0.2-1.2-0.4-2     c-0.8,0.1-1.2,0.2-2.1,0.4c-0.1-0.4-0.2-0.9-0.4-1.3c0.8-0.3,1.2-0.4,2-0.7c-0.3-0.8-0.4-1.2-0.7-1.9c-0.8,0.3-1.2,0.4-2,0.7     c-0.2-0.4-0.4-0.8-0.6-1.2c0.7-0.4,1.1-0.6,1.8-1c-0.4-0.7-0.6-1.1-1-1.8c-0.7,0.4-1.1,0.6-1.8,1c-0.2-0.4-0.5-0.7-0.8-1.1     c0.6-0.5,1-0.8,1.6-1.3c-0.5-0.6-0.8-0.9-1.3-1.6c-0.6,0.5-1,0.8-1.6,1.3c-0.3-0.3-0.6-0.6-1-1c0.5-0.6,0.8-1,1.3-1.6     c-0.6-0.5-0.9-0.8-1.6-1.3c-0.5,0.6-0.8,1-1.3,1.6c-0.4-0.3-0.7-0.5-1.1-0.8c0.4-0.7,0.6-1.1,1-1.8c-0.7-0.4-1.1-0.6-1.8-1     c-0.4,0.7-0.6,1.1-1,1.8c-0.4-0.2-0.8-0.4-1.2-0.6c0.3-0.8,0.4-1.2,0.7-2c-0.8-0.3-1.2-0.4-1.9-0.7c-0.3,0.8-0.4,1.2-0.7,2     c-0.4-0.1-0.9-0.2-1.3-0.4c0.1-0.8,0.2-1.2,0.4-2.1c-0.8-0.1-1.2-0.2-2-0.4c-0.1,0.8-0.2,1.2-0.4,2.1c-0.4-0.1-0.9-0.1-1.3-0.1     c0-0.8,0-1.3,0-2.1c-0.8,0-1.2,0-2.1,0c0,0.8,0,1.3,0,2.1c-0.5,0-0.9,0.1-1.3,0.1c-0.1-0.8-0.2-1.2-0.4-2.1     c-0.8,0.1-1.2,0.2-2,0.4c0.1,0.8,0.2,1.2,0.4,2.1c-0.4,0.1-0.9,0.2-1.3,0.4c-0.3-0.8-0.4-1.2-0.7-2c-0.8,0.3-1.2,0.4-1.9,0.7     c0.3,0.8,0.4,1.2,0.7,2c-0.4,0.2-0.8,0.4-1.2,0.6c-0.4-0.7-0.6-1.1-1-1.8c-0.7,0.4-1.1,0.6-1.8,1c0.4,0.7,0.6,1.1,1,1.8     c-0.4,0.2-0.7,0.5-1.1,0.8c-0.5-0.6-0.8-1-1.3-1.6c-0.6,0.5-0.9,0.8-1.6,1.3c0.5,0.6,0.8,1,1.3,1.6c-0.3,0.3-0.6,0.6-1,1     c-0.6-0.5-1-0.8-1.6-1.3c-0.5,0.6-0.8,0.9-1.3,1.6c0.6,0.5,1,0.8,1.6,1.3c-0.3,0.4-0.5,0.7-0.8,1.1c-0.7-0.4-1.1-0.6-1.8-1     c-0.4,0.7-0.6,1.1-1,1.8c0.7,0.4,1.1,0.6,1.8,1c-0.2,0.4-0.4,0.8-0.6,1.2c-0.8-0.3-1.2-0.4-2-0.7c-0.3,0.8-0.4,1.2-0.7,1.9     c0.8,0.3,1.2,0.4,2,0.7c-0.1,0.4-0.2,0.9-0.4,1.3c-0.8-0.1-1.2-0.2-2.1-0.4c-0.1,0.8-0.2,1.2-0.4,2c0.8,0.1,1.2,0.2,2.1,0.4     c-0.1,0.4-0.1,0.9-0.1,1.3c-0.8,0-1.3,0-2.1,0c0,0.8,0,1.2,0,2.1c0.8,0,1.3,0,2.1,0c0,0.5,0.1,0.9,0.1,1.3     c-0.6,0.1-1,0.2-1.6,0.3c-0.1-0.1-0.1-0.2-0.2-0.3c-1.4,0.8-2,1.2-3.4,2c-0.5-0.7-1-1.4-1.5-2.1c1.2-1,1.8-1.5,3-2.5     c-1-1.2-1.5-1.8-2.5-3c-1.2,1-1.8,1.5-3,2.5c-0.6-0.6-1.2-1.2-1.8-1.8c1-1.2,1.5-1.8,2.5-3c-1.2-1-1.8-1.5-3-2.5     c-1,1.2-1.5,1.8-2.5,3c-0.7-0.5-1.4-1-2.1-1.5c0.8-1.4,1.2-2,2-3.4c-1.3-0.8-2-1.2-3.4-1.9c-0.8,1.4-1.2,2-2,3.4     c-0.8-0.4-1.5-0.7-2.3-1.1c0.5-1.5,0.8-2.2,1.3-3.7c-1.5-0.5-2.2-0.8-3.6-1.3c-0.5,1.5-0.8,2.2-1.3,3.7c-0.8-0.2-1.6-0.5-2.5-0.7     c0.3-1.5,0.4-2.3,0.7-3.9c-1.5-0.3-2.3-0.4-3.8-0.7c-0.3,1.5-0.4,2.3-0.7,3.9c-0.8-0.1-1.7-0.2-2.5-0.2c0-1.6,0-2.4,0-3.9     c-1.6,0-2.3,0-3.9,0c0,1.6,0,2.4,0,3.9c-0.9,0-1.7,0.1-2.5,0.2c-0.3-1.5-0.4-2.3-0.7-3.9c-1.5,0.3-2.3,0.4-3.8,0.7     c0.3,1.5,0.4,2.3,0.7,3.9c-0.8,0.2-1.7,0.4-2.5,0.7c-0.5-1.5-0.8-2.2-1.3-3.7c-1.5,0.5-2.2,0.8-3.6,1.3c0.5,1.5,0.8,2.2,1.3,3.7     c-0.8,0.3-1.6,0.7-2.3,1.1c-0.8-1.4-1.2-2-2-3.4c-1.3,0.8-2,1.2-3.4,1.9c0.8,1.4,1.2,2,2,3.4c-0.7,0.5-1.4,1-2.1,1.5     c-1-1.2-1.5-1.8-2.5-3c-0.1,0.1-0.1,0.1-0.2,0.2c0.7-1.2,1.1-1.9,1.8-3.1c-1.4-0.8-2-1.2-3.4-2c0.4-0.8,0.7-1.5,1.1-2.3     c1.5,0.5,2.2,0.8,3.7,1.3c0.5-1.5,0.8-2.2,1.3-3.6c-1.5-0.5-2.2-0.8-3.7-1.3c0.2-0.8,0.5-1.6,0.7-2.5c1.5,0.3,2.3,0.4,3.9,0.7     c0.3-1.5,0.4-2.3,0.7-3.8c-1.5-0.3-2.3-0.4-3.9-0.7c0.1-0.8,0.2-1.7,0.2-2.5c1.6,0,2.4,0,3.9,0c0-1.6,0-2.3,0-3.9     c-1.6,0-2.4,0-3.9,0c0-0.9-0.1-1.7-0.2-2.5c1.5-0.3,2.3-0.4,3.9-0.7c-0.3-1.5-0.4-2.3-0.7-3.8c-1.5,0.3-2.3,0.4-3.9,0.7     c-0.2-0.8-0.4-1.7-0.7-2.5c0.9-0.3,1.3-0.5,2.2-0.8c0.8,1,1.3,1.5,2.1,2.5c1.2-1,1.8-1.5,3-2.5c0.6,0.6,1.2,1.2,1.8,1.8     c-1,1.2-1.5,1.8-2.5,3c1.2,1,1.8,1.5,3,2.5c1-1.2,1.5-1.8,2.5-3c0.7,0.5,1.4,1,2.1,1.5c-0.8,1.4-1.2,2-2,3.4     c1.3,0.8,2,1.2,3.4,1.9c0.8-1.4,1.2-2,2-3.4c0.8,0.4,1.5,0.7,2.3,1.1c-0.5,1.5-0.8,2.2-1.3,3.7c1.5,0.5,2.2,0.8,3.6,1.3     c0.5-1.5,0.8-2.2,1.3-3.7c0.8,0.2,1.6,0.5,2.5,0.7c-0.3,1.5-0.4,2.3-0.7,3.9c1.5,0.3,2.3,0.4,3.8,0.7c0.3-1.5,0.4-2.3,0.7-3.9     c0.8,0.1,1.7,0.2,2.5,0.2c0,1.6,0,2.4,0,3.9c1.6,0,2.3,0,3.9,0c0-1.6,0-2.4,0-3.9c0.9,0,1.7-0.1,2.5-0.2c0.3,1.5,0.4,2.3,0.7,3.9     c1.5-0.3,2.3-0.4,3.8-0.7c-0.3-1.5-0.4-2.3-0.7-3.9c0.8-0.2,1.7-0.4,2.5-0.7c0.5,1.5,0.8,2.2,1.3,3.7c1.5-0.5,2.2-0.8,3.6-1.3     c-0.5-1.5-0.8-2.2-1.3-3.7c0.8-0.3,1.6-0.7,2.3-1.1c0.8,1.4,1.2,2,2,3.4c1.3-0.8,2-1.2,3.4-1.9c-0.8-1.4-1.2-2-2-3.4     c0.7-0.5,1.4-1,2.1-1.5c1,1.2,1.5,1.8,2.5,3c1.2-1,1.8-1.5,3-2.5c-1-1.2-1.5-1.8-2.5-3c0.6-0.6,1.2-1.2,1.8-1.8     c1.2,1,1.8,1.5,3,2.5c1-1.2,1.5-1.8,2.5-3c-1.2-1-1.8-1.5-3-2.5c0.5-0.7,1-1.4,1.5-2.1c1.4,0.8,2,1.2,3.4,2     c0.8-1.3,1.2-2,1.9-3.4c-1.4-0.8-2-1.2-3.4-2c0.4-0.8,0.7-1.5,1.1-2.3c1.5,0.5,2.2,0.8,3.7,1.3c0.5-1.5,0.8-2.2,1.3-3.6     c-1.5-0.5-2.2-0.8-3.7-1.3c0.2-0.8,0.5-1.6,0.7-2.5c1.5,0.3,2.3,0.4,3.9,0.7c0.3-1.5,0.4-2.3,0.7-3.8c-1.5-0.3-2.3-0.4-3.9-0.7     c0.1-0.8,0.2-1.7,0.2-2.5c1.6,0,2.4,0,3.9,0c0-1.6,0-2.3,0-3.9c-1.6,0-2.4,0-3.9,0c0-0.9-0.1-1.7-0.2-2.5     c1.5-0.3,2.3-0.4,3.9-0.7c-0.3-1.5-0.4-2.3-0.7-3.8c-1.5,0.3-2.3,0.4-3.9,0.7c-0.2-0.8-0.4-1.7-0.7-2.5c1.5-0.5,2.2-0.8,3.7-1.3     c-0.5-1.5-0.8-2.2-1.3-3.6c-1.5,0.5-2.2,0.8-3.7,1.3c-0.3-0.8-0.7-1.6-1.1-2.3c1.4-0.8,2-1.2,3.4-2c-0.8-1.3-1.2-2-1.9-3.4     c-1.4,0.8-2,1.2-3.4,2c-0.5-0.7-1-1.4-1.5-2.1c1.2-1,1.8-1.5,3-2.5c-1-1.2-1.5-1.8-2.5-3c-1.2,1-1.8,1.5-3,2.5     c-0.6-0.6-1.2-1.2-1.8-1.8c1-1.2,1.5-1.8,2.5-3c-1.2-1-1.8-1.5-3-2.5c-1,1.2-1.5,1.8-2.5,3c-0.7-0.5-1.4-1-2.1-1.5     c0.8-1.4,1.2-2,2-3.4c-1.3-0.8-2-1.2-3.4-1.9c-0.8,1.4-1.2,2-2,3.4c-0.8-0.4-1.5-0.7-2.3-1.1c0.5-1.5,0.8-2.2,1.3-3.7     c-1.5-0.5-2.2-0.8-3.6-1.3c-0.5,1.5-0.8,2.2-1.3,3.7c-0.8-0.2-1.6-0.5-2.5-0.7c0.3-1.5,0.4-2.3,0.7-3.9c-1.5-0.3-2.3-0.4-3.8-0.7     c-0.3,1.5-0.4,2.3-0.7,3.9c-0.8-0.1-1.7-0.2-2.5-0.2c0-1.6,0-2.4,0-3.9c-1.6,0-2.3,0-3.9,0c0,1.6,0,2.4,0,3.9     c-0.9,0-1.7,0.1-2.5,0.2c-0.3-1.5-0.4-2.3-0.7-3.9c-1.5,0.3-2.3,0.4-3.8,0.7c0.3,1.5,0.4,2.3,0.7,3.9c-0.8,0.2-1.7,0.4-2.5,0.7     c-0.5-1.5-0.8-2.2-1.3-3.7c-1.5,0.5-2.2,0.8-3.6,1.3c0.5,1.5,0.8,2.2,1.3,3.7c-0.8,0.3-1.6,0.7-2.3,1.1c-0.8-1.4-1.2-2-2-3.4     c-1.3,0.8-2,1.2-3.4,1.9c0.8,1.4,1.2,2,2,3.4c-0.7,0.5-1.4,1-2.1,1.5c-1-1.2-1.5-1.8-2.5-3c-1.2,1-1.8,1.5-3,2.5     c1,1.2,1.5,1.8,2.5,3c-0.6,0.6-1.2,1.2-1.8,1.8c-1.2-1-1.8-1.5-3-2.5c-1,1.2-1.5,1.8-2.5,3c1.2,1,1.8,1.5,3,2.5     c-0.5,0.7-1,1.4-1.5,2.1c-1.4-0.8-2-1.2-3.4-2c-0.8,1.3-1.2,2-1.9,3.4c1.4,0.8,2,1.2,3.4,2c-0.4,0.8-0.7,1.5-1.1,2.3     c-1.5-0.5-2.2-0.8-3.7-1.3c-0.5,1.5-0.8,2.2-1.3,3.6c1.5,0.5,2.2,0.8,3.7,1.3c-0.2,0.8-0.5,1.6-0.7,2.5c-1.5-0.3-2.3-0.4-3.9-0.7     c-0.3,1.5-0.4,2.3-0.7,3.8c1.5,0.3,2.3,0.4,3.9,0.7c-0.1,0.8-0.2,1.7-0.2,2.5c-1.6,0-2.4,0-3.9,0c0,1.6,0,2.3,0,3.9     c1.6,0,2.4,0,3.9,0c0,0.9,0.1,1.7,0.2,2.5c-1.5,0.3-2.3,0.4-3.9,0.7c0.3,1.5,0.4,2.3,0.7,3.8c1.5-0.3,2.3-0.4,3.9-0.7     c0.2,0.8,0.4,1.7,0.7,2.5c-0.9,0.3-1.3,0.5-2.2,0.8c-0.8-1-1.3-1.5-2.1-2.5c-1.2,1-1.8,1.5-3,2.5c-0.6-0.6-1.2-1.2-1.8-1.8     c1-1.2,1.5-1.8,2.5-3c-1.2-1-1.8-1.5-3-2.5c-1,1.2-1.5,1.8-2.5,3c-0.7-0.5-1.4-1-2.1-1.5c0.8-1.4,1.2-2,2-3.4     c-1.3-0.8-2-1.2-3.4-1.9c-0.8,1.4-1.2,2-2,3.4c-0.8-0.4-1.5-0.7-2.3-1.1c0.5-1.5,0.8-2.2,1.3-3.7c-1.5-0.5-2.2-0.8-3.6-1.3     c-0.5,1.5-0.8,2.2-1.3,3.7c-0.8-0.2-1.6-0.5-2.5-0.7c0.3-1.5,0.4-2.3,0.7-3.9c-1.5-0.3-2.3-0.4-3.8-0.7c-0.3,1.5-0.4,2.3-0.7,3.9     c-0.8-0.1-1.7-0.2-2.5-0.2c0-1.6,0-2.4,0-3.9c-1.6,0-2.3,0-3.9,0c0,1.6,0,2.4,0,3.9c-0.9,0-1.7,0.1-2.5,0.2     c-0.3-1.5-0.4-2.3-0.7-3.9c-1.5,0.3-2.3,0.4-3.8,0.7c0.3,1.5,0.4,2.3,0.7,3.9c-0.8,0.2-1.7,0.4-2.5,0.7c-0.5-1.5-0.8-2.2-1.3-3.7     c-1.5,0.5-2.2,0.8-3.6,1.3c0.5,1.5,0.8,2.2,1.3,3.7c-0.8,0.3-1.6,0.7-2.3,1.1c-0.8-1.4-1.2-2-2-3.4c-1.3,0.8-2,1.2-3.4,1.9     c0.8,1.4,1.2,2,2,3.4c-0.7,0.5-1.4,1-2.1,1.5c-1-1.2-1.5-1.8-2.5-3c-1.2,1-1.8,1.5-3,2.5c1,1.2,1.5,1.8,2.5,3     c-0.6,0.6-1.2,1.2-1.8,1.8c-1.2-1-1.8-1.5-3-2.5c-0.9,1.1-1.4,1.7-2.4,2.8c-1.2-0.4-1.8-0.7-3.1-1.1c0.2-0.8,0.5-1.6,0.7-2.5     c1.5,0.3,2.3,0.4,3.9,0.7c0.3-1.5,0.4-2.3,0.7-3.8c-1.5-0.3-2.3-0.4-3.9-0.7c0.1-0.8,0.2-1.7,0.2-2.5c1.6,0,2.4,0,3.9,0     c0-1.6,0-2.3,0-3.9c-1.6,0-2.4,0-3.9,0c0-0.9-0.1-1.7-0.2-2.5c1.5-0.3,2.3-0.4,3.9-0.7c-0.3-1.5-0.4-2.3-0.7-3.8     c-1.5,0.3-2.3,0.4-3.9,0.7c-0.2-0.8-0.4-1.7-0.7-2.5c1.5-0.5,2.2-0.8,3.7-1.3c-0.5-1.5-0.8-2.2-1.3-3.6c-1.5,0.5-2.2,0.8-3.7,1.3     c-0.3-0.8-0.7-1.6-1.1-2.3c1.4-0.8,2-1.2,3.4-2c-0.8-1.3-1.2-2-1.9-3.4c-1.4,0.8-2,1.2-3.4,2c-0.5-0.7-1-1.4-1.5-2.1     c1.2-1,1.8-1.5,3-2.5c-1-1.2-1.5-1.8-2.5-3c-1.2,1-1.8,1.5-3,2.5c-0.6-0.6-1.2-1.2-1.8-1.8c1-1.2,1.5-1.8,2.5-3     c-1.2-1-1.8-1.5-3-2.5c-1,1.2-1.5,1.8-2.5,3c-0.7-0.5-1.4-1-2.1-1.5c0.8-1.4,1.2-2,2-3.4c-1.3-0.8-2-1.2-3.4-1.9     c-0.8,1.4-1.2,2-2,3.4c-0.8-0.4-1.5-0.7-2.3-1.1c0.5-1.5,0.8-2.2,1.3-3.7c-1.5-0.5-2.2-0.8-3.6-1.3c-0.5,1.5-0.8,2.2-1.3,3.7     c-0.8-0.2-1.6-0.5-2.5-0.7c0.3-1.5,0.4-2.3,0.7-3.9c-1.5-0.3-2.3-0.4-3.8-0.7c-0.3,1.5-0.4,2.3-0.7,3.9c-0.8-0.1-1.7-0.2-2.5-0.2     c0-1.6,0-2.4,0-3.9c-1.6,0-2.3,0-3.9,0c0,1.6,0,2.4,0,3.9c-0.9,0-1.7,0.1-2.5,0.2c-0.3-1.5-0.4-2.3-0.7-3.9     c-1.5,0.3-2.3,0.4-3.8,0.7c0.3,1.5,0.4,2.3,0.7,3.9c-0.8,0.2-1.7,0.4-2.5,0.7c-0.5-1.5-0.8-2.2-1.3-3.7c-1.5,0.5-2.2,0.8-3.6,1.3     c0.5,1.5,0.8,2.2,1.3,3.7c-0.8,0.3-1.6,0.7-2.3,1.1c-0.8-1.4-1.2-2-2-3.4c-1.3,0.8-2,1.2-3.4,1.9c0.8,1.4,1.2,2,2,3.4     c-0.7,0.5-1.4,1-2.1,1.5c-1-1.2-1.5-1.8-2.5-3c-1.2,1-1.8,1.5-3,2.5c1,1.2,1.5,1.8,2.5,3c-0.6,0.6-1.2,1.2-1.8,1.8     c-1.2-1-1.8-1.5-3-2.5c-1,1.2-1.5,1.8-2.5,3c1.2,1,1.8,1.5,3,2.5c-0.5,0.7-1,1.4-1.5,2.1c-1.4-0.8-2-1.2-3.4-2     c-0.8,1.3-1.2,2-1.9,3.4c1.4,0.8,2,1.2,3.4,2c-0.4,0.8-0.7,1.5-1.1,2.3c-1.5-0.5-2.2-0.8-3.7-1.3c-0.5,1.5-0.8,2.2-1.3,3.6     c1.5,0.5,2.2,0.8,3.7,1.3c-0.2,0.8-0.5,1.6-0.7,2.5c-1.5-0.3-2.3-0.4-3.9-0.7c-0.3,1.5-0.4,2.3-0.7,3.8c1.5,0.3,2.3,0.4,3.9,0.7     c-0.1,0.8-0.2,1.7-0.2,2.5c-1.6,0-2.4,0-3.9,0c0,1.6,0,2.3,0,3.9c1.6,0,2.4,0,3.9,0c0,0.9,0.1,1.7,0.2,2.5     c-1.5,0.3-2.3,0.4-3.9,0.7c0.3,1.5,0.4,2.3,0.7,3.8c1.5-0.3,2.3-0.4,3.9-0.7c0.2,0.8,0.4,1.7,0.7,2.5c-1.5,0.5-2.2,0.8-3.7,1.3     c0.5,1.5,0.8,2.2,1.3,3.6c1.5-0.5,2.2-0.8,3.7-1.3c0.3,0.8,0.7,1.6,1.1,2.3c-1.4,0.8-2,1.2-3.4,2c0.8,1.3,1.2,2,1.9,3.4     c1.4-0.8,2-1.2,3.4-2c0.5,0.7,1,1.4,1.5,2.1c-1.2,1-1.8,1.5-3,2.5c1,1.2,1.5,1.8,2.5,3c1.2-1,1.8-1.5,3-2.5     c0.6,0.6,1.2,1.2,1.8,1.8c-1,1.2-1.5,1.8-2.5,3c1.2,1,1.8,1.5,3,2.5c1-1.2,1.5-1.8,2.5-3c0.7,0.5,1.4,1,2.1,1.5     c-0.8,1.4-1.2,2-2,3.4c1.3,0.8,2,1.2,3.4,1.9c0.8-1.4,1.2-2,2-3.4c0.8,0.4,1.5,0.7,2.3,1.1c-0.5,1.5-0.8,2.2-1.3,3.7     c1.5,0.5,2.2,0.8,3.6,1.3c0.5-1.5,0.8-2.2,1.3-3.7c0.8,0.2,1.6,0.5,2.5,0.7c-0.3,1.5-0.4,2.3-0.7,3.9c1.5,0.3,2.3,0.4,3.8,0.7     c0.3-1.5,0.4-2.3,0.7-3.9c0.8,0.1,1.7,0.2,2.5,0.2c0,1.6,0,2.4,0,3.9c1.6,0,2.3,0,3.9,0c0-1.6,0-2.4,0-3.9c0.9,0,1.7-0.1,2.5-0.2     c0.3,1.5,0.4,2.3,0.7,3.9c1.5-0.3,2.3-0.4,3.8-0.7c-0.3-1.5-0.4-2.3-0.7-3.9c0.8-0.2,1.7-0.4,2.5-0.7c0.5,1.5,0.8,2.2,1.3,3.7     c1.5-0.5,2.2-0.8,3.6-1.3c-0.5-1.5-0.8-2.2-1.3-3.7c0.8-0.3,1.6-0.7,2.3-1.1c0.8,1.4,1.2,2,2,3.4c1.3-0.8,2-1.2,3.4-1.9     c-0.8-1.4-1.2-2-2-3.4c0.7-0.5,1.4-1,2.1-1.5c1,1.2,1.5,1.8,2.5,3c1.2-1,1.8-1.5,3-2.5c-1-1.2-1.5-1.8-2.5-3     c0.6-0.6,1.2-1.2,1.8-1.8c1.2,1,1.8,1.5,3,2.5c0.9-1.1,1.4-1.7,2.4-2.8c1.2,0.4,1.8,0.7,3.1,1.1c-0.2,0.8-0.5,1.6-0.7,2.5     c-1.5-0.3-2.3-0.4-3.9-0.7c-0.3,1.5-0.4,2.3-0.7,3.8c1.5,0.3,2.3,0.4,3.9,0.7c-0.1,0.8-0.2,1.7-0.2,2.5c-1.6,0-2.4,0-3.9,0     c0,1.6,0,2.3,0,3.9c1.6,0,2.4,0,3.9,0c0,0.9,0.1,1.7,0.2,2.5c-1.5,0.3-2.3,0.4-3.9,0.7c0.3,1.5,0.4,2.3,0.7,3.8     c1.5-0.3,2.3-0.4,3.9-0.7c0.2,0.8,0.4,1.7,0.7,2.5c-1.5,0.5-2.2,0.8-3.7,1.3c0.5,1.5,0.8,2.2,1.3,3.6c1.5-0.5,2.2-0.8,3.7-1.3     c0.3,0.8,0.7,1.6,1.1,2.3c-1.4,0.8-2,1.2-3.4,2c0.7,1.3,1.1,1.9,1.9,3.2c-0.7,1.3-1.1,1.9-1.9,3.2c-0.8-0.4-1.5-0.7-2.3-1.1     c0.5-1.5,0.8-2.2,1.3-3.7c-1.5-0.5-2.2-0.8-3.6-1.3c-0.5,1.5-0.8,2.2-1.3,3.7c-0.8-0.2-1.6-0.5-2.5-0.7c0.3-1.5,0.4-2.3,0.7-3.9     c-1.5-0.3-2.3-0.4-3.8-0.7c-0.3,1.5-0.4,2.3-0.7,3.9c-0.8-0.1-1.7-0.2-2.5-0.2c0-1.6,0-2.4,0-3.9c-1.6,0-2.3,0-3.9,0     c0,1.6,0,2.4,0,3.9c-0.9,0-1.7,0.1-2.5,0.2c-0.3-1.5-0.4-2.3-0.7-3.9c-1.5,0.3-2.3,0.4-3.8,0.7c0.3,1.5,0.4,2.3,0.7,3.9     c-0.8,0.2-1.7,0.4-2.5,0.7c-0.5-1.5-0.8-2.2-1.3-3.7c-1.5,0.5-2.2,0.8-3.6,1.3c0.5,1.5,0.8,2.2,1.3,3.7c-0.8,0.3-1.6,0.7-2.3,1.1     c-0.8-1.4-1.2-2-2-3.4c-1.3,0.8-2,1.2-3.4,1.9c0.8,1.4,1.2,2,2,3.4c-0.7,0.5-1.4,1-2.1,1.5c-1-1.2-1.5-1.8-2.5-3     c-1.2,1-1.8,1.5-3,2.5c1,1.2,1.5,1.8,2.5,3c-0.6,0.6-1.2,1.2-1.8,1.8c-1.2-1-1.8-1.5-3-2.5c-1,1.2-1.5,1.8-2.5,3     c1.2,1,1.8,1.5,3,2.5c-0.5,0.7-1,1.4-1.5,2.1c-1.4-0.8-2-1.2-3.4-2c-0.8,1.3-1.2,2-1.9,3.4c1.4,0.8,2,1.2,3.4,2     c-0.4,0.8-0.7,1.5-1.1,2.3c-1.5-0.5-2.2-0.8-3.7-1.3c-0.5,1.5-0.8,2.2-1.3,3.6c1.5,0.5,2.2,0.8,3.7,1.3c-0.2,0.8-0.5,1.6-0.7,2.5     c-1.5-0.3-2.3-0.4-3.9-0.7c-0.3,1.5-0.4,2.3-0.7,3.8c1.5,0.3,2.3,0.4,3.9,0.7c-0.1,0.8-0.2,1.7-0.2,2.5c-1.6,0-2.4,0-3.9,0     c0,1.6,0,2.3,0,3.9c1.6,0,2.4,0,3.9,0c0,0.9,0.1,1.7,0.2,2.5c-1.5,0.3-2.3,0.4-3.9,0.7c0.3,1.5,0.4,2.3,0.7,3.8     c1.5-0.3,2.3-0.4,3.9-0.7c0.2,0.8,0.4,1.7,0.7,2.5c-1.5,0.5-2.2,0.8-3.7,1.3c0.5,1.5,0.8,2.2,1.3,3.6c1.5-0.5,2.2-0.8,3.7-1.3     c0.3,0.8,0.7,1.6,1.1,2.3c-1.4,0.8-2,1.2-3.4,2c0.8,1.3,1.2,2,1.9,3.4c1.4-0.8,2-1.2,3.4-2c0.5,0.7,1,1.4,1.5,2.1     c-1.2,1-1.8,1.5-3,2.5c1,1.2,1.5,1.8,2.5,3c1.2-1,1.8-1.5,3-2.5c0.6,0.6,1.2,1.2,1.8,1.8c-1,1.2-1.5,1.8-2.5,3     c1.2,1,1.8,1.5,3,2.5c1-1.2,1.5-1.8,2.5-3c0.7,0.5,1.4,1,2.1,1.5c-0.8,1.4-1.2,2-2,3.4c1.3,0.8,2,1.2,3.4,1.9     c0.8-1.4,1.2-2,2-3.4c0.8,0.4,1.5,0.7,2.3,1.1c-0.5,1.5-0.8,2.2-1.3,3.7c1.5,0.5,2.2,0.8,3.6,1.3c0.5-1.5,0.8-2.2,1.3-3.7     c0.8,0.2,1.6,0.5,2.5,0.7c-0.3,1.5-0.4,2.3-0.7,3.9c1.5,0.3,2.3,0.4,3.8,0.7c0.3-1.5,0.4-2.3,0.7-3.9c0.8,0.1,1.7,0.2,2.5,0.2     c0,1.6,0,2.4,0,3.9c1.6,0,2.3,0,3.9,0c0-1.6,0-2.4,0-3.9c0.9,0,1.7-0.1,2.5-0.2c0.3,1.5,0.4,2.3,0.7,3.9c1.5-0.3,2.3-0.4,3.8-0.7     c-0.3-1.5-0.4-2.3-0.7-3.9c0.8-0.2,1.7-0.4,2.5-0.7c0.5,1.5,0.8,2.2,1.3,3.7c1.5-0.5,2.2-0.8,3.6-1.3c-0.5-1.5-0.8-2.2-1.3-3.7     c0.8-0.3,1.6-0.7,2.3-1.1c0.8,1.4,1.2,2,2,3.4c1.3-0.8,2-1.2,3.4-1.9c-0.8-1.4-1.2-2-2-3.4c0.7-0.5,1.4-1,2.1-1.5     c1,1.2,1.5,1.8,2.5,3c1.2-1,1.8-1.5,3-2.5c-1-1.2-1.5-1.8-2.5-3c0.6-0.6,1.2-1.2,1.8-1.8c1.2,1,1.8,1.5,3,2.5     c1-1.2,1.5-1.8,2.5-3c-1.2-1-1.8-1.5-3-2.5c0.5-0.7,1-1.4,1.5-2.1c1.4,0.8,2,1.2,3.4,2c0.8-1.3,1.2-2,1.9-3.4     c-1.4-0.8-2-1.2-3.4-2c0.4-0.8,0.7-1.5,1.1-2.3c1.5,0.5,2.2,0.8,3.7,1.3c0.5-1.5,0.8-2.2,1.3-3.6c-1.5-0.5-2.2-0.8-3.7-1.3     c0.2-0.8,0.5-1.6,0.7-2.5c1.5,0.3,2.3,0.4,3.9,0.7c0.3-1.5,0.4-2.3,0.7-3.8c-1.5-0.3-2.3-0.4-3.9-0.7c0.1-0.8,0.2-1.7,0.2-2.5     c1.6,0,2.4,0,3.9,0c0-1.6,0-2.3,0-3.9c-1.6,0-2.4,0-3.9,0c0-0.9-0.1-1.7-0.2-2.5c1.5-0.3,2.3-0.4,3.9-0.7     c-0.3-1.5-0.4-2.3-0.7-3.8c-1.5,0.3-2.3,0.4-3.9,0.7c-0.2-0.8-0.4-1.7-0.7-2.5c1.5-0.5,2.2-0.8,3.7-1.3c-0.5-1.5-0.8-2.2-1.3-3.6     c-1.5,0.5-2.2,0.8-3.7,1.3c-0.3-0.8-0.7-1.6-1.1-2.3c1.4-0.8,2-1.2,3.4-2c-0.7-1.3-1.1-1.9-1.9-3.2c0.7-1.3,1.1-1.9,1.9-3.2     c0.8,0.4,1.5,0.7,2.3,1.1c-0.5,1.5-0.8,2.2-1.3,3.7c1.5,0.5,2.2,0.8,3.6,1.3c0.5-1.5,0.8-2.2,1.3-3.7c0.8,0.2,1.6,0.5,2.5,0.7     c-0.3,1.5-0.4,2.3-0.7,3.9c1.5,0.3,2.3,0.4,3.8,0.7c0.3-1.5,0.4-2.3,0.7-3.9c0.8,0.1,1.7,0.2,2.5,0.2c0,1.6,0,2.4,0,3.9     c1.6,0,2.3,0,3.9,0c0-1.6,0-2.4,0-3.9c0.9,0,1.7-0.1,2.5-0.2c0.3,1.5,0.4,2.3,0.7,3.9c1.5-0.3,2.3-0.4,3.8-0.7     c-0.3-1.5-0.4-2.3-0.7-3.9c0.8-0.2,1.7-0.4,2.5-0.7c0.5,1.5,0.8,2.2,1.3,3.7c1.5-0.5,2.2-0.8,3.6-1.3c-0.5-1.5-0.8-2.2-1.3-3.7     c0.8-0.3,1.6-0.7,2.3-1.1c0.8,1.4,1.2,2,2,3.4c1.3-0.8,2-1.2,3.4-1.9c-0.8-1.4-1.2-2-2-3.4c0.7-0.5,1.4-1,2.1-1.5     c1,1.2,1.5,1.8,2.5,3c0.1-0.1,0.1-0.1,0.2-0.2c-0.7,1.2-1.1,1.9-1.8,3.1c1.4,0.8,2,1.2,3.4,2c-0.4,0.8-0.7,1.5-1.1,2.3     c-1.5-0.5-2.2-0.8-3.7-1.3c-0.5,1.5-0.8,2.2-1.3,3.6c1.5,0.5,2.2,0.8,3.7,1.3c-0.2,0.8-0.5,1.6-0.7,2.5c-1.5-0.3-2.3-0.4-3.9-0.7     c-0.3,1.5-0.4,2.3-0.7,3.8c1.5,0.3,2.3,0.4,3.9,0.7c-0.1,0.8-0.2,1.7-0.2,2.5c-1.6,0-2.4,0-3.9,0c0,1.6,0,2.3,0,3.9     c1.6,0,2.4,0,3.9,0c0,0.9,0.1,1.7,0.2,2.5c-1.5,0.3-2.3,0.4-3.9,0.7c0.3,1.5,0.4,2.3,0.7,3.8c1.5-0.3,2.3-0.4,3.9-0.7     c0.2,0.8,0.4,1.7,0.7,2.5c-1.5,0.5-2.2,0.8-3.7,1.3c0.5,1.5,0.8,2.2,1.3,3.6c1.5-0.5,2.2-0.8,3.7-1.3c0.3,0.8,0.7,1.6,1.1,2.3     c-1.4,0.8-2,1.2-3.4,2c0.8,1.3,1.2,2,1.9,3.4c1.4-0.8,2-1.2,3.4-2c0.5,0.7,1,1.4,1.5,2.1c-1.2,1-1.8,1.5-3,2.5     c1,1.2,1.5,1.8,2.5,3c1.2-1,1.8-1.5,3-2.5c0.6,0.6,1.2,1.2,1.8,1.8c-1,1.2-1.5,1.8-2.5,3c1.2,1,1.8,1.5,3,2.5     c1-1.2,1.5-1.8,2.5-3c0.7,0.5,1.4,1,2.1,1.5c-0.8,1.4-1.2,2-2,3.4c1.3,0.8,2,1.2,3.4,1.9c0.8-1.4,1.2-2,2-3.4     c0.8,0.4,1.5,0.7,2.3,1.1c-0.5,1.5-0.8,2.2-1.3,3.7c1.5,0.5,2.2,0.8,3.6,1.3c0.5-1.5,0.8-2.2,1.3-3.7c0.8,0.2,1.6,0.5,2.5,0.7     c-0.3,1.5-0.4,2.3-0.7,3.9c1.5,0.3,2.3,0.4,3.8,0.7c0.3-1.5,0.4-2.3,0.7-3.9c0.8,0.1,1.7,0.2,2.5,0.2c0,1.6,0,2.4,0,3.9     c1.6,0,2.3,0,3.9,0c0-1.6,0-2.4,0-3.9c0.9,0,1.7-0.1,2.5-0.2c0.3,1.5,0.4,2.3,0.7,3.9c1.5-0.3,2.3-0.4,3.8-0.7     c-0.3-1.5-0.4-2.3-0.7-3.9c0.8-0.2,1.7-0.4,2.5-0.7c0.5,1.5,0.8,2.2,1.3,3.7c1.5-0.5,2.2-0.8,3.6-1.3c-0.5-1.5-0.8-2.2-1.3-3.7     c0.8-0.3,1.6-0.7,2.3-1.1c0.8,1.4,1.2,2,2,3.4c1.3-0.8,2-1.2,3.4-1.9c-0.8-1.4-1.2-2-2-3.4c0.7-0.5,1.4-1,2.1-1.5     c1,1.2,1.5,1.8,2.5,3c1.2-1,1.8-1.5,3-2.5c-1-1.2-1.5-1.8-2.5-3c0.6-0.6,1.2-1.2,1.8-1.8c1.2,1,1.8,1.5,3,2.5     c1-1.2,1.5-1.8,2.5-3c-1.2-1-1.8-1.5-3-2.5c0.5-0.7,1-1.4,1.5-2.1c1.4,0.8,2,1.2,3.4,2c0.8-1.3,1.2-2,1.9-3.4     c-1.4-0.8-2-1.2-3.4-2c0.4-0.8,0.7-1.5,1.1-2.3c1.5,0.5,2.2,0.8,3.7,1.3c0.5-1.5,0.8-2.2,1.3-3.6c-1.5-0.5-2.2-0.8-3.7-1.3     c0.2-0.8,0.5-1.6,0.7-2.5c1.5,0.3,2.3,0.4,3.9,0.7c0.3-1.5,0.4-2.3,0.7-3.8c-1.5-0.3-2.3-0.4-3.9-0.7c0.1-0.8,0.2-1.7,0.2-2.5     c1.6,0,2.4,0,3.9,0c0-1.6,0-2.3,0-3.9c-1.6,0-2.4,0-3.9,0c0-0.9-0.1-1.7-0.2-2.5c1.5-0.3,2.3-0.4,3.9-0.7     c-0.3-1.5-0.4-2.3-0.7-3.8c-1.5,0.3-2.3,0.4-3.9,0.7c-0.2-0.8-0.4-1.7-0.7-2.5c1.5-0.5,2.2-0.8,3.7-1.3c-0.2-0.5-0.3-0.7-0.5-1.2     c0.2-0.1,0.4-0.2,0.6-0.4c0.2,0.4,0.5,0.7,0.8,1.1c-0.6,0.5-1,0.8-1.6,1.3c0.5,0.6,0.8,0.9,1.3,1.6c0.6-0.5,1-0.8,1.6-1.3     c0.3,0.3,0.6,0.6,1,1c-0.5,0.6-0.8,1-1.3,1.6c0.6,0.5,0.9,0.8,1.6,1.3c0.5-0.6,0.8-1,1.3-1.6c0.4,0.3,0.7,0.5,1.1,0.8     c-0.4,0.7-0.6,1.1-1,1.8c0.7,0.4,1.1,0.6,1.8,1c0.4-0.7,0.6-1.1,1-1.8c0.4,0.2,0.8,0.4,1.2,0.6c-0.3,0.8-0.4,1.2-0.7,2     c0.8,0.3,1.2,0.4,1.9,0.7c0.3-0.8,0.4-1.2,0.7-2c0.4,0.1,0.9,0.2,1.3,0.4c-0.1,0.8-0.2,1.2-0.4,2c0.8,0.1,1.2,0.2,2,0.4     c0.1-0.8,0.2-1.2,0.4-2.1c0.4,0.1,0.9,0.1,1.3,0.1c0,0.8,0,1.3,0,2.1c0.8,0,1.2,0,2.1,0c0-0.8,0-1.3,0-2.1c0.5,0,0.9-0.1,1.3-0.1     c0.1,0.8,0.2,1.2,0.4,2.1c0.8-0.1,1.2-0.2,2-0.4c-0.1-0.8-0.2-1.2-0.4-2c0.4-0.1,0.9-0.2,1.3-0.4c0.3,0.8,0.4,1.2,0.7,2     c0.8-0.3,1.2-0.4,1.9-0.7c-0.3-0.8-0.4-1.2-0.7-2c0.4-0.2,0.8-0.4,1.2-0.6c0.4,0.7,0.6,1.1,1,1.8c0.7-0.4,1.1-0.6,1.8-1     c-0.4-0.7-0.6-1.1-1-1.8c0.4-0.2,0.7-0.5,1.1-0.8c0.5,0.6,0.8,1,1.3,1.6c0.6-0.5,0.9-0.8,1.6-1.3c-0.5-0.6-0.8-1-1.3-1.6     c0.3-0.3,0.6-0.6,1-1c0.6,0.5,1,0.8,1.6,1.3c0.5-0.6,0.8-0.9,1.3-1.6c-0.6-0.5-1-0.8-1.6-1.3c0.3-0.4,0.5-0.7,0.8-1.1     c0.7,0.4,1.1,0.6,1.8,1c0.4-0.7,0.6-1.1,1-1.8c-0.7-0.4-1.1-0.6-1.8-1c0.2-0.4,0.4-0.8,0.6-1.2c0.8,0.3,1.2,0.4,2,0.7     c0.3-0.8,0.4-1.2,0.7-1.9c-0.8-0.3-1.2-0.4-2-0.7c0.1-0.4,0.2-0.9,0.4-1.3c0.8,0.1,1.2,0.2,2.1,0.4c0.1-0.8,0.2-1.2,0.4-2     c-0.8-0.1-1.2-0.2-2.1-0.4c0.1-0.4,0.1-0.9,0.1-1.3c0.8,0,1.3,0,2.1,0C352.3,206,352.3,205.6,352.3,204.8z"/>
			<path d="M331.7,217.1c0,1.7,0,2.5,0,4.1c7.7-0.5,13.9-6.7,14.4-14.4c-1.7,0-2.5,0-4.1,0C341.4,212.3,337.1,216.6,331.7,217.1z"/>
			<circle cx="330.6" cy="205.8" r="5.1"/>
			<path d="M329.6,194.5c0-1.7,0-2.5,0-4.1c-7.7,0.5-13.9,6.7-14.4,14.4c1.7,0,2.5,0,4.1,0C319.8,199.3,324.2,195,329.6,194.5z"/>
			<path d="M319.4,206.8c-1.7,0-2.5,0-4.1,0c0.5,7.7,6.7,13.9,14.4,14.4c0-1.7,0-2.5,0-4.1C324.2,216.6,319.8,212.3,319.4,206.8z"/>
			<path d="M244.7,203c-0.8-0.7-1.2-1-2.1-1.7c-0.6,0.6-1.2,1.2-1.8,1.8c0.8,0.9,1.1,1.4,1.9,2.3C243.6,204.4,243.9,203.9,244.7,203     z"/>
			<path d="M160.8,212.8c0-3.1,0-4.7,0-7.8c-7.3,0.5-13.8,3.6-18.6,8.5c-4.8,4.8-8,11.4-8.5,18.6c3.1,0,4.7,0,7.8,0     C142.4,221.9,150.6,213.8,160.8,212.8z"/>
			<path d="M182.8,203.2c0.7,0.5,1.4,1,2.1,1.5c0.3-0.4,0.5-0.6,0.8-0.9c-0.8-0.9-1.1-1.3-1.9-2.2     C183.4,202.2,183.2,202.5,182.8,203.2z"/>
			<path d="M141.5,236c-3.1,0-4.7,0-7.8,0c0.5,7.3,3.6,13.8,8.5,18.6c4.8,4.8,11.4,8,18.6,8.5c0-3.1,0-4.7,0-7.8     C150.6,254.4,142.4,246.3,141.5,236z"/>
			<path d="M194.5,178c-3.1,0-4.7,0-7.8,0c0.5,7.3,3.6,13.8,8.5,18.6c4.8,4.8,11.4,8,18.6,8.5c0-3.1,0-4.7,0-7.8     C203.5,196.4,195.4,188.3,194.5,178z"/>
			<circle cx="162.7" cy="234.1" r="9.7"/>
			<path d="M181.1,158.4c-0.6,1-0.9,1.5-1.5,2.5c0.8,0.3,1.3,0.5,2.1,0.8c0.3-0.8,0.7-1.6,1.1-2.3     C182.2,159,181.8,158.8,181.1,158.4z"/>
			<path d="M186.3,198.3c-0.5-0.7-1-1.4-1.5-2.1c-1.3,0.7-1.9,1.1-3.1,1.8c1.2,0.7,1.8,1,2.9,1.7     C185.3,199.1,185.6,198.8,186.3,198.3z"/>
			<path d="M179,153.7c-0.3,0.8-0.7,1.6-1.1,2.3c0.7,0.4,1,0.6,1.7,1c0.6-1,0.9-1.5,1.5-2.5C180.3,154.2,179.9,154.1,179,153.7z"/>
			<path d="M192.2,211.9c0.5,0.7,1,1.4,1.5,2.1c1.3-0.7,1.9-1.1,3.1-1.8c-1.2-0.7-1.8-1-2.9-1.7     C193.2,211.1,192.9,211.4,192.2,211.9z"/>
			<path d="M187.9,207.2c0.6,0.6,1.2,1.2,1.8,1.8c0.4-0.3,0.5-0.5,0.9-0.8c-0.8-0.7-1.3-1.1-2.1-1.8     C188.2,206.7,188.1,206.9,187.9,207.2z"/>
			<path d="M195.6,207c-0.7-0.5-1.4-1-2.1-1.5c-0.3,0.4-0.5,0.6-0.8,0.9c0.8,0.9,1.1,1.3,1.9,2.2C195,208,195.2,207.7,195.6,207z"/>
			<path d="M187.9,202c0.8,0.7,1.3,1.1,2.1,1.8c0.2-0.3,0.4-0.4,0.6-0.7c-0.6-0.6-1.2-1.2-1.8-1.8     C188.4,201.5,188.2,201.7,187.9,202z"/>
			<path d="M164.7,255.4c0,3.1,0,4.7,0,7.8c7.3-0.5,13.8-3.6,18.6-8.5c4.8-4.8,8-11.4,8.5-18.6c-3.1,0-4.7,0-7.8,0     C183.1,246.3,174.9,254.4,164.7,255.4z"/>
			<path d="M164.7,205.1c0,3.1,0,4.7,0,7.8c10.2,0.9,18.4,9.1,19.3,19.3c3.1,0,4.7,0,7.8,0c-0.5-7.3-3.6-13.8-8.5-18.6     C178.5,208.7,171.9,205.5,164.7,205.1z"/>
		</g>
	</g>
</g>
</svg>